<svg width="42" height="43" viewBox="0 0 42 43" fill="none" xmlns="http://www.w3.org/2000/svg">
<path fill-rule="evenodd" clip-rule="evenodd" d="M2.4556 21.5C2.4556 16.5817 4.40938 11.8649 7.88713 8.38716C11.3649 4.90941 16.0817 2.95563 21 2.95563C25.9183 2.95563 30.6351 4.90941 34.1129 8.38716C37.5906 11.8649 39.5444 16.5817 39.5444 21.5C39.5444 26.4183 37.5906 31.1352 34.1129 34.6129C30.6351 38.0907 25.9183 40.0444 21 40.0444C16.0817 40.0444 11.3649 38.0907 7.88713 34.6129C4.40938 31.1352 2.4556 26.4183 2.4556 21.5ZM21 5.61563C16.7872 5.61563 12.7469 7.28916 9.76803 10.2681C6.78913 13.247 5.1156 17.2872 5.1156 21.5C5.1156 25.7128 6.78913 29.7531 9.76803 32.732C12.7469 35.7109 16.7872 37.3844 21 37.3844C25.2128 37.3844 29.2531 35.7109 32.232 32.732C35.2109 29.7531 36.8844 25.7128 36.8844 21.5C36.8844 17.2872 35.2109 13.247 32.232 10.2681C29.2531 7.28916 25.2128 5.61563 21 5.61563ZM19.95 25.7C19.796 26.0556 17.7296 33.988 17.7296 33.988C17.6818 34.1656 17.5995 34.3321 17.4874 34.4779C17.3752 34.6236 17.2355 34.7459 17.0761 34.8377C16.7542 35.0231 16.3719 35.073 16.0132 34.9764C15.8356 34.9286 15.6692 34.8463 15.5234 34.7342C15.3776 34.6221 15.2553 34.4823 15.1635 34.3229C14.9782 34.001 14.9283 33.6187 15.0248 33.26C15.0248 33.26 17.4888 25.3444 17.4888 23.656V19.5428L12.0064 18.0728C11.8261 18.0279 11.6565 17.9475 11.5076 17.8364C11.3587 17.7252 11.2334 17.5855 11.139 17.4255C11.0446 17.2654 10.983 17.0882 10.9579 16.9041C10.9327 16.7199 10.9444 16.5327 10.9924 16.3531C11.0403 16.1736 11.1235 16.0054 11.2372 15.8584C11.3508 15.7113 11.4925 15.5884 11.6541 15.4967C11.8158 15.405 11.994 15.3464 12.1785 15.3243C12.363 15.3022 12.5501 15.3171 12.7288 15.368C12.7288 15.368 17.36 16.9444 19.1688 16.9444H22.834C24.64 16.9444 29.2684 15.368 29.2684 15.368C29.6271 15.2715 30.0094 15.3214 30.3313 15.5068C30.6532 15.6921 30.8883 15.9978 30.9848 16.3564C31.0813 16.7151 31.0314 17.0974 30.8461 17.4193C30.6607 17.7412 30.3551 17.9763 29.9964 18.0728L24.4916 19.5484V23.656C24.4916 25.3444 26.9556 33.2516 26.9556 33.2516C27.0518 33.6103 27.0015 33.9925 26.8159 34.3141C26.6303 34.6357 26.3245 34.8705 25.9658 34.9666C25.6071 35.0628 25.2249 35.0125 24.9033 34.8269C24.5817 34.6413 24.347 34.3355 24.2508 33.9768C24.2508 33.9768 22.176 26.0556 22.0332 25.7C21.8932 25.3444 21.42 25.3444 21.42 25.3444H20.5604C20.5604 25.3444 20.076 25.3444 19.95 25.7ZM21 14.836C21.8354 14.836 22.6366 14.5042 23.2274 13.9134C23.8181 13.3227 24.15 12.5215 24.15 11.686C24.15 10.8506 23.8181 10.0494 23.2274 9.45864C22.6366 8.8679 21.8354 8.53603 21 8.53603C20.1646 8.53603 19.3634 8.8679 18.7726 9.45864C18.1819 10.0494 17.85 10.8506 17.85 11.686C17.85 12.5215 18.1819 13.3227 18.7726 13.9134C19.3634 14.5042 20.1646 14.836 21 14.836Z" fill="white"/>
</svg>
