<svg width="394" height="138" viewBox="0 0 394 138" fill="none" xmlns="http://www.w3.org/2000/svg">
<path d="M14.153 77.088C10.313 77.088 6.377 75.888 3.113 74.304L1.673 82.032C4.409 83.52 9.017 84.72 14.009 84.72C22.697 84.72 27.209 80.592 27.209 74.592C27.209 68.88 22.217 66.72 17.465 65.424C14.489 64.656 11.609 63.936 11.609 62.544C11.609 61.344 12.617 60.96 14.489 60.96C17.609 60.96 21.641 62.016 25.049 63.696L26.537 55.968C23.657 54.48 19.817 53.328 14.441 53.328C6.233 53.328 2.153 57.12 2.153 63.024C2.153 69.168 7.721 71.184 12.137 72.48C15.641 73.536 17.753 73.872 17.753 75.36C17.753 76.656 16.313 77.088 14.153 77.088ZM49.9738 61.728H59.0458V54H31.4458V61.728H40.5178V84H49.9738V61.728ZM91.5346 84L81.4066 54H69.3586L59.0386 84H68.3506L70.1266 78.384H80.3026L82.1746 84H91.5346ZM75.3106 60.768L78.4786 71.28H71.9506L75.3106 60.768ZM106.209 84V75.12L108.849 74.88L114.225 84H124.689L117.249 72.48C121.281 70.896 123.105 67.68 123.105 63.84C123.105 57.84 118.737 54 110.337 54H96.7528V84H106.209ZM109.281 68.352L106.017 68.4V61.2H108.609C112.065 61.2 113.313 62.256 113.313 64.512C113.313 66.96 112.161 68.016 109.281 68.352ZM151.103 68.208C154.703 67.296 156.911 65.376 156.911 61.776C156.911 57.552 154.943 54 145.103 54H130.559V84H145.151C155.711 84 157.823 79.824 157.823 75.168C157.823 71.328 154.895 68.736 151.103 68.208ZM147.455 63.456C147.455 65.376 146.159 66.336 143.615 66.336H139.679V60.72H143.903C146.255 60.72 147.455 61.632 147.455 63.456ZM148.271 74.448C148.271 76.416 146.975 77.28 144.095 77.28H139.679V71.664H143.999C146.687 71.664 148.271 72.384 148.271 74.448ZM191.732 71.424V54H182.324V71.28C182.324 75.504 181.028 76.944 177.908 76.944C174.644 76.944 173.252 75.072 173.252 71.04V54H163.796V72.192C163.796 81.264 169.796 84.72 177.764 84.72C185.972 84.72 191.732 80.688 191.732 71.424ZM208.846 84V75.12L211.486 74.88L216.862 84H227.326L219.886 72.48C223.918 70.896 225.742 67.68 225.742 63.84C225.742 57.84 221.374 54 212.974 54H199.39V84H208.846ZM211.918 68.352L208.654 68.4V61.2H211.246C214.702 61.2 215.95 62.256 215.95 64.512C215.95 66.96 214.798 68.016 211.918 68.352ZM260.669 81.984V66.288H245.405V73.536H252.269V76.56C251.309 76.944 249.677 77.136 248.381 77.136C243.053 77.136 240.797 74.256 240.797 68.928C240.797 64.368 243.725 61.2 248.573 61.2C251.405 61.2 254.093 61.92 257.213 63.648L260.141 55.872C257.069 54.096 252.221 53.28 248.189 53.28C237.773 53.28 231.389 59.136 231.389 69.12C231.389 79.2 238.061 84.72 248.093 84.72C253.085 84.72 257.357 83.664 260.669 81.984ZM295.682 71.424V54H286.274V71.28C286.274 75.504 284.978 76.944 281.858 76.944C278.594 76.944 277.202 75.072 277.202 71.04V54H267.746V72.192C267.746 81.264 273.746 84.72 281.714 84.72C289.922 84.72 295.682 80.688 295.682 71.424ZM303.34 84H326.764V76.656H312.556V72.624H323.788V65.28H312.556V61.344H326.764V54H303.34V84ZM343.368 84V75.12L346.008 74.88L351.384 84H361.848L354.408 72.48C358.44 70.896 360.264 67.68 360.264 63.84C360.264 57.84 355.896 54 347.496 54H333.912V84H343.368ZM346.44 68.352L343.176 68.4V61.2H345.768C349.224 61.2 350.472 62.256 350.472 64.512C350.472 66.96 349.32 68.016 346.44 68.352ZM378.897 77.088C375.057 77.088 371.121 75.888 367.857 74.304L366.417 82.032C369.153 83.52 373.761 84.72 378.753 84.72C387.441 84.72 391.953 80.592 391.953 74.592C391.953 68.88 386.961 66.72 382.209 65.424C379.233 64.656 376.353 63.936 376.353 62.544C376.353 61.344 377.361 60.96 379.233 60.96C382.353 60.96 386.385 62.016 389.793 63.696L391.281 55.968C388.401 54.48 384.561 53.328 379.185 53.328C370.977 53.328 366.897 57.12 366.897 63.024C366.897 69.168 372.465 71.184 376.881 72.48C380.385 73.536 382.497 73.872 382.497 75.36C382.497 76.656 381.057 77.088 378.897 77.088Z" fill="white"/>
<path d="M120.458 122.624C120.458 121.392 120.342 120.396 120.11 119.636C119.886 118.876 119.578 118.296 119.186 117.896C118.794 117.488 118.35 117.212 117.854 117.068C117.358 116.924 116.842 116.852 116.306 116.852H115.082V128.564H116.318C116.878 128.564 117.406 128.476 117.902 128.3C118.406 128.124 118.85 127.82 119.234 127.388C119.618 126.948 119.918 126.344 120.134 125.576C120.35 124.8 120.458 123.816 120.458 122.624ZM123.89 122.624C123.89 123.984 123.742 125.148 123.446 126.116C123.158 127.084 122.758 127.888 122.246 128.528C121.734 129.16 121.142 129.656 120.47 130.016C119.806 130.376 119.094 130.632 118.334 130.784C117.582 130.928 116.818 131 116.042 131H111.794V114.404H115.754C116.786 114.404 117.786 114.516 118.754 114.74C119.722 114.956 120.59 115.356 121.358 115.94C122.134 116.524 122.75 117.356 123.206 118.436C123.662 119.508 123.89 120.904 123.89 122.624ZM136.709 116.828V121.376H142.589V123.764H136.709V128.588H143.849V131H133.421V114.404H143.765L143.429 116.828H136.709ZM158.803 128.18L162.403 114.404H165.763L160.699 131H156.787L151.747 114.404H155.239L158.803 128.18ZM177.97 116.828V121.376H183.85V123.764H177.97V128.588H185.11V131H174.682V114.404H185.026L184.69 116.828H177.97ZM195.397 131V114.404H198.685V128.336H206.005L205.657 131H195.397ZM227.091 122.696C227.091 124.424 226.847 125.94 226.359 127.244C225.879 128.54 225.159 129.552 224.199 130.28C223.239 131 222.051 131.36 220.635 131.36C219.227 131.36 218.039 131.008 217.071 130.304C216.111 129.592 215.387 128.592 214.899 127.304C214.419 126.008 214.179 124.476 214.179 122.708C214.179 120.98 214.419 119.468 214.899 118.172C215.387 116.868 216.111 115.856 217.071 115.136C218.039 114.408 219.227 114.044 220.635 114.044C222.051 114.044 223.239 114.396 224.199 115.1C225.159 115.804 225.879 116.804 226.359 118.1C226.847 119.396 227.091 120.928 227.091 122.696ZM223.707 122.696C223.707 120.6 223.467 119.048 222.987 118.04C222.515 117.024 221.731 116.516 220.635 116.516C219.539 116.516 218.751 117.024 218.271 118.04C217.799 119.056 217.563 120.612 217.563 122.708C217.563 124.812 217.807 126.368 218.295 127.376C218.783 128.376 219.563 128.876 220.635 128.876C221.747 128.876 222.535 128.368 222.999 127.352C223.471 126.336 223.707 124.784 223.707 122.696ZM244.326 119.72C244.326 119.032 244.194 118.476 243.93 118.052C243.674 117.62 243.298 117.304 242.802 117.104C242.306 116.904 241.71 116.804 241.014 116.804H239.298V122.816H241.11C241.766 122.816 242.33 122.716 242.802 122.516C243.282 122.308 243.654 121.976 243.918 121.52C244.19 121.064 244.326 120.464 244.326 119.72ZM247.734 119.696C247.734 120.984 247.458 122.04 246.906 122.864C246.362 123.68 245.598 124.284 244.614 124.676C243.63 125.06 242.494 125.252 241.206 125.252H239.298V131H236.01V114.404H240.894C243.046 114.404 244.722 114.84 245.922 115.712C247.13 116.584 247.734 117.912 247.734 119.696ZM260.493 116.828V121.376H266.373V123.764H260.493V128.588H267.633V131H257.205V114.404H267.549L267.213 116.828H260.493ZM288.599 119.312C288.599 120.112 288.439 120.812 288.119 121.412C287.807 122.012 287.379 122.516 286.835 122.924C286.299 123.332 285.695 123.648 285.023 123.872L289.571 131H285.803L281.879 124.388H280.367V131H277.091V114.404H281.975C284.159 114.404 285.807 114.808 286.919 115.616C288.039 116.424 288.599 117.656 288.599 119.312ZM285.191 119.312C285.191 118.416 284.931 117.772 284.411 117.38C283.891 116.98 283.107 116.78 282.059 116.78H280.367V122.06H282.167C283.135 122.06 283.879 121.844 284.399 121.412C284.927 120.98 285.191 120.28 285.191 119.312Z" fill="#9BD3BE"/>
<path d="M212.079 11.4539L204.016 10.2821L200.411 2.97506C200.313 2.775 200.151 2.61304 199.951 2.5146C199.449 2.2669 198.839 2.47331 198.589 2.97506L194.984 10.2821L186.921 11.4539C186.699 11.4857 186.496 11.5905 186.34 11.7493C186.152 11.9426 186.048 12.2028 186.052 12.4725C186.056 12.7422 186.166 12.9995 186.359 13.1878L192.193 18.8753L190.815 26.9065C190.782 27.0933 190.803 27.2854 190.874 27.4611C190.946 27.6368 191.065 27.7889 191.218 27.9003C191.372 28.0118 191.553 28.078 191.742 28.0915C191.931 28.1049 192.121 28.0652 192.288 27.9766L199.5 24.185L206.712 27.9766C206.909 28.0814 207.137 28.1164 207.356 28.0783C207.909 27.983 208.281 27.459 208.185 26.9065L206.807 18.8753L212.641 13.1878C212.799 13.0322 212.904 12.829 212.936 12.6067C213.022 12.051 212.634 11.5365 212.079 11.4539Z" fill="#9BD3BE"/>
<path d="M248.346 12.8922L242.28 12.0021L239.569 6.45126C239.495 6.29928 239.373 6.17625 239.222 6.10147C238.845 5.9133 238.386 6.07011 238.198 6.45126L235.486 12.0021L229.42 12.8922C229.253 12.9163 229.1 12.9959 228.983 13.1166C228.842 13.2634 228.764 13.461 228.766 13.6659C228.769 13.8709 228.852 14.0663 228.998 14.2093L233.386 18.5299L232.349 24.6307C232.325 24.7726 232.341 24.9185 232.394 25.052C232.448 25.1854 232.538 25.301 232.653 25.3857C232.768 25.4703 232.905 25.5206 233.047 25.5308C233.189 25.5411 233.332 25.5109 233.458 25.4436L238.883 22.5633L244.309 25.4436C244.457 25.5232 244.629 25.5498 244.794 25.5208C245.209 25.4485 245.489 25.0504 245.417 24.6307L244.38 18.5299L248.769 14.2093C248.888 14.0911 248.967 13.9368 248.991 13.7679C249.056 13.3457 248.764 12.9549 248.346 12.8922Z" fill="#9BD3BE"/>
<path d="M169.58 13.6149L163.514 12.7247L160.802 7.17391C160.728 7.02194 160.607 6.89891 160.456 6.82412C160.079 6.63596 159.62 6.79276 159.431 7.17391L156.72 12.7247L150.654 13.6149C150.487 13.639 150.334 13.7186 150.217 13.8392C150.075 13.9861 149.997 14.1837 150 14.3886C150.003 14.5935 150.086 14.789 150.231 14.932L154.62 19.2525L153.583 25.3533C153.559 25.4952 153.574 25.6412 153.628 25.7746C153.682 25.9081 153.771 26.0237 153.887 26.1083C154.002 26.193 154.139 26.2433 154.281 26.2535C154.423 26.2637 154.565 26.2335 154.691 26.1663L160.117 23.2859L165.542 26.1663C165.69 26.2459 165.862 26.2724 166.027 26.2435C166.443 26.1711 166.722 25.7731 166.651 25.3533L165.614 19.2525L170.002 14.932C170.122 14.8138 170.201 14.6594 170.225 14.4905C170.289 14.0684 169.998 13.6776 169.58 13.6149Z" fill="#9BD3BE"/>
</svg>
