<svg width="54" height="57" viewBox="0 0 54 57" fill="none" xmlns="http://www.w3.org/2000/svg">
<path d="M32.5263 39.3578C26.2105 39.3578 19.7368 37.37 14.3684 34.7462L12 47.5474C16.5 50.0122 24.0789 52 32.2895 52C46.5789 52 54 45.1621 54 35.2232C54 25.7615 45.7895 22.1835 37.9737 20.0367C33.0789 18.7645 28.3421 17.5719 28.3421 15.2661C28.3421 13.2783 30 12.6422 33.0789 12.6422C38.2105 12.6422 44.8421 14.3914 50.4474 17.1743L52.8947 4.37309C48.1579 1.90826 41.8421 0 33 0C19.5 0 12.7895 6.28135 12.7895 16.0612C12.7895 26.2385 21.9474 29.578 29.2105 31.7248C34.9737 33.474 38.4474 34.0306 38.4474 36.4954C38.4474 38.6422 36.0789 39.3578 32.5263 39.3578Z" fill="#007146"/>
<path d="M23.1482 33.0806L16.6751 35.6589L10.8764 31.7796C10.7178 31.6733 10.5285 31.6224 10.3382 31.6349C9.86051 31.6657 9.49737 32.0795 9.52647 32.559L9.98664 39.5205L4.5173 43.8372C4.36627 43.9558 4.26064 44.1204 4.2134 44.3048C4.1569 44.5286 4.19153 44.7659 4.3097 44.9645C4.42787 45.163 4.61991 45.3066 4.84361 45.3637L11.5997 47.0884L14.0186 53.6352C14.0747 53.7876 14.1723 53.9213 14.3003 54.0211C14.4284 54.1209 14.5817 54.1829 14.7431 54.1999C14.9044 54.217 15.0672 54.1885 15.213 54.1176C15.3589 54.0468 15.4819 53.9364 15.5681 53.799L19.2852 47.9028L26.25 47.6319C26.4407 47.6254 26.625 47.5536 26.7709 47.4316C27.1393 47.1247 27.1901 46.5771 26.8829 46.208L22.4227 40.8398L24.3071 34.1265C24.358 33.9432 24.3486 33.7476 24.2769 33.5691C24.1024 33.1202 23.5951 32.9043 23.1482 33.0806V33.0806Z" fill="#9BD3BE"/>
</svg>
