<svg width="87" height="116" viewBox="0 0 87 116" fill="none" xmlns="http://www.w3.org/2000/svg">
<path d="M8.14013 109.408C6.56413 109.408 5.23613 109.076 4.15613 108.412C3.07613 107.74 2.25613 106.756 1.69613 105.46C1.14413 104.156 0.868125 102.552 0.868125 100.648C0.868125 99.232 1.06413 97.984 1.45613 96.904C1.85613 95.816 2.40813 94.908 3.11213 94.18C3.81613 93.444 4.63613 92.888 5.57213 92.512C6.50813 92.136 7.51613 91.948 8.59613 91.948C9.81213 91.948 10.8361 92.136 11.6681 92.512C12.5001 92.888 13.2401 93.384 13.8881 94L11.8241 96.136C11.3201 95.688 10.8361 95.356 10.3721 95.14C9.90813 94.924 9.38013 94.816 8.78813 94.816C8.22813 94.816 7.71213 94.928 7.24013 95.152C6.77613 95.368 6.36813 95.712 6.01613 96.184C5.67213 96.648 5.40413 97.252 5.21213 97.996C5.02013 98.732 4.92413 99.624 4.92413 100.672C4.92413 102.12 5.04013 103.272 5.27213 104.128C5.51213 104.984 5.87213 105.6 6.35213 105.976C6.83213 106.344 7.44013 106.528 8.17613 106.528C8.56813 106.528 8.93613 106.484 9.28013 106.396C9.62413 106.3 9.94413 106.176 10.2401 106.024V102.22H8.15213L7.76813 99.46H13.9601V107.728C13.1281 108.24 12.2321 108.648 11.2721 108.952C10.3201 109.256 9.27613 109.408 8.14013 109.408ZM24.1868 96.256V106.408H27.4268V109H16.7828V106.408H20.3948V98.848H16.9028V96.256H24.1868ZM21.8948 89.584C22.5508 89.584 23.0868 89.788 23.5028 90.196C23.9188 90.604 24.1268 91.112 24.1268 91.72C24.1268 92.328 23.9188 92.84 23.5028 93.256C23.0868 93.664 22.5508 93.868 21.8948 93.868C21.2308 93.868 20.6868 93.664 20.2628 93.256C19.8468 92.84 19.6388 92.328 19.6388 91.72C19.6388 91.112 19.8468 90.604 20.2628 90.196C20.6868 89.788 21.2308 89.584 21.8948 89.584ZM42.2614 108.256C41.7654 108.576 41.1654 108.848 40.4614 109.072C39.7574 109.296 38.9654 109.408 38.0854 109.408C36.4214 109.408 35.1854 108.984 34.3774 108.136C33.5694 107.28 33.1654 106.12 33.1654 104.656V98.872H30.4894V96.256H33.1654V93.496L36.9574 93.04V96.256H41.0614L40.6894 98.872H36.9574V104.656C36.9574 105.288 37.1014 105.74 37.3894 106.012C37.6774 106.284 38.1374 106.42 38.7694 106.42C39.2174 106.42 39.6254 106.368 39.9934 106.264C40.3694 106.152 40.7054 106.012 41.0014 105.844L42.2614 108.256ZM52.716 109V101.992H48.684V109H44.748V92.368H48.684V98.752H52.716V92.368H56.652V109H52.716ZM63.3626 96.256V104.98C63.3626 105.596 63.4746 106.02 63.6986 106.252C63.9306 106.484 64.2506 106.6 64.6586 106.6C65.0506 106.6 65.4426 106.476 65.8346 106.228C66.2266 105.98 66.5546 105.644 66.8186 105.22V96.256H70.6106V109H67.2986L67.1306 107.512C66.6986 108.136 66.1306 108.608 65.4266 108.928C64.7226 109.248 63.9866 109.408 63.2186 109.408C61.9866 109.408 61.0706 109.052 60.4706 108.34C59.8706 107.62 59.5706 106.656 59.5706 105.448V96.256H63.3626ZM77.7533 97.564C78.1533 97.036 78.6333 96.616 79.1933 96.304C79.7613 95.992 80.3693 95.836 81.0173 95.836C82.1133 95.836 83.0053 96.112 83.6933 96.664C84.3893 97.216 84.9013 97.996 85.2292 99.004C85.5573 100.012 85.7213 101.208 85.7213 102.592C85.7213 103.904 85.5253 105.076 85.1333 106.108C84.7493 107.132 84.1773 107.94 83.4173 108.532C82.6573 109.116 81.7253 109.408 80.6213 109.408C79.2853 109.408 78.2333 108.888 77.4653 107.848L77.3213 109H73.9613V91.192L77.7533 90.796V97.564ZM79.6253 106.648C80.2973 106.648 80.8293 106.34 81.2213 105.724C81.6133 105.1 81.8093 104.072 81.8093 102.64C81.8093 101.584 81.7253 100.768 81.5573 100.192C81.3973 99.608 81.1653 99.204 80.8613 98.98C80.5653 98.748 80.2173 98.632 79.8173 98.632C79.3933 98.632 79.0133 98.764 78.6773 99.028C78.3413 99.292 78.0333 99.652 77.7533 100.108V105.484C77.9933 105.86 78.2613 106.148 78.5573 106.348C78.8533 106.548 79.2093 106.648 79.6253 106.648Z" fill="white"/>
<path d="M43.9711 5.51392C26.0998 5.50669 11.625 19.9743 11.625 37.8311C11.625 51.9518 20.6799 63.9551 33.2902 68.3633C34.9885 68.7897 34.7283 67.5829 34.7283 66.759V61.1584C24.9219 62.3075 24.5244 55.818 23.8668 54.734C22.5371 52.4649 19.3936 51.8868 20.333 50.8028C22.566 49.6538 24.8424 51.0918 27.4801 54.987C29.3879 57.8125 33.1096 57.3356 34.9957 56.8659C35.4076 55.1676 36.2893 53.65 37.5033 52.4721C27.3428 50.651 23.108 44.4506 23.108 37.0795C23.108 33.5024 24.2859 30.2143 26.5984 27.5622C25.1242 23.1901 26.7357 19.4467 26.9525 18.8903C31.1512 18.5145 35.516 21.8965 35.8557 22.1639C38.2404 21.5208 40.9648 21.1811 44.0145 21.1811C47.0785 21.1811 49.8102 21.5352 52.2166 22.1856C53.0332 21.5641 57.0801 18.659 60.9824 19.0131C61.192 19.5696 62.7674 23.2262 61.3799 27.5405C63.7213 30.1999 64.9137 33.5169 64.9137 37.1012C64.9137 44.4868 60.65 50.6944 50.4605 52.4866C51.3333 53.3449 52.0263 54.3685 52.499 55.4976C52.9718 56.6267 53.2148 57.8387 53.2139 59.0627V67.1926C53.2717 67.843 53.2139 68.4862 54.2979 68.4862C67.0961 64.1719 76.31 52.0819 76.31 37.8383C76.31 19.9743 61.8279 5.51392 43.9711 5.51392Z" fill="white"/>
</svg>
