<svg width="309" height="39" viewBox="0 0 309 39" fill="none" xmlns="http://www.w3.org/2000/svg">
<path d="M125.441 9.78468C123.988 9.25534 122.452 8.98971 120.906 9.0003C115.906 9.0003 112.375 11.5191 112.35 15.1347C112.319 17.7909 114.859 19.2878 116.781 20.1753C118.753 21.0878 119.412 21.6628 119.406 22.4784C119.394 23.7191 117.831 24.2816 116.378 24.2816C114.381 24.2816 113.291 24.0034 111.612 23.3066L110.991 23.0159L110.281 27.1784C111.497 27.6847 113.687 28.1191 115.95 28.1566C121.266 28.1566 124.741 25.6534 124.781 21.8066C124.825 19.6847 123.45 18.0816 120.556 16.7566C118.797 15.8972 117.706 15.3222 117.706 14.4503C117.706 13.6784 118.641 12.8534 120.594 12.8534C121.894 12.822 123.185 13.0659 124.384 13.5691L124.853 13.7784L125.562 9.75655L125.441 9.78468ZM138.416 9.3378H134.509C133.294 9.3378 132.378 9.67218 131.847 10.8784L124.334 27.8972H129.65L130.712 25.1066L137.2 25.1128C137.353 25.7659 137.822 27.8972 137.822 27.8972H142.509L138.416 9.3378ZM105.159 9.18155H110.225L107.056 27.7503H101.997L105.159 9.1753V9.18155ZM92.3 19.4159L92.825 21.9941L97.775 9.3378H103.141L95.1687 27.8722H89.8156L85.4406 12.1784C85.3698 11.9197 85.2034 11.6974 84.975 11.5566C83.3981 10.742 81.7273 10.1238 80 9.71593L80.0687 9.3253H88.2219C89.3281 9.36905 90.2187 9.71593 90.5156 10.8972L92.2969 19.4253V19.4159H92.3ZM132.166 21.3097L134.184 16.1159C134.159 16.1722 134.6 15.0441 134.856 14.3472L135.203 15.9503L136.375 21.3066H132.162V21.3097H132.166Z" fill="#9BD3BE"/>
<path d="M22.1303 31.2935C22.2427 31.3898 22.3646 31.4861 22.4841 31.58C20.1089 33.1601 17.3208 34.0016 14.47 33.9988C12.5697 34.0004 10.6878 33.6265 8.93181 32.8986C7.17584 32.1707 5.58028 31.103 4.23638 29.7567C2.89247 28.4103 1.82658 26.8116 1.09967 25.0521C0.372757 23.2926 -0.000922865 21.4068 1.71153e-06 19.5024C-0.000245494 16.8796 0.709343 14.3058 2.0532 12.0552C3.39706 9.80451 5.32487 7.96125 7.63133 6.72168C9.93779 5.48211 12.5365 4.89265 15.1508 5.01607C17.7651 5.13948 20.2971 5.97116 22.4771 7.42252C22.3599 7.5235 22.2427 7.61509 22.1537 7.71841C20.4646 9.18006 19.1093 10.9891 18.1801 13.0225C17.2509 15.0559 16.7696 17.266 16.7688 19.5024C16.7688 24.023 18.7207 28.3205 22.1303 31.2935ZM32.3494 5.00372C29.5011 4.99817 26.7152 5.83998 24.3447 7.42252C24.4595 7.5235 24.5767 7.61509 24.6657 7.71841C28.0916 10.6844 30.053 14.9842 30.053 19.5024C30.053 24.0207 28.0963 28.3158 24.6915 31.2935C24.5767 31.3898 24.4548 31.4861 24.3377 31.58C26.7108 33.1606 29.4976 34.0022 32.3471 33.9988C34.2623 34.0234 36.1634 33.6666 37.94 32.9491C39.7166 32.2317 41.3333 31.1678 42.6964 29.8193C44.0595 28.4707 45.1418 26.8644 45.8806 25.0934C46.6194 23.3224 46.9998 21.422 47 19.5025C47.0002 17.5829 46.62 15.6825 45.8815 13.9114C45.143 12.1402 44.0609 10.5337 42.6981 9.18493C41.3352 7.83618 39.7186 6.77206 37.9422 6.0543C36.1657 5.33655 34.2647 4.97945 32.3494 5.00372ZM23.4097 8.11294C21.6869 9.46667 20.2944 11.1958 19.3378 13.1693C18.3813 15.1427 17.8857 17.3085 17.8889 19.5024C17.8843 21.6976 18.3792 23.865 19.3358 25.8397C20.2925 27.8145 21.6857 29.5448 23.4097 30.899C25.1332 29.5442 26.5262 27.8139 27.4832 25.8393C28.4402 23.8647 28.9359 21.6976 28.9329 19.5024C28.9361 17.3083 28.4403 15.1422 27.4833 13.1687C26.5263 11.1952 25.1332 9.4662 23.4097 8.11294Z" fill="#9BD3BE"/>
<path d="M187.146 10.2166C186.431 11.0636 185.288 11.7297 184.144 11.6346C184.001 10.4926 184.563 9.27446 185.221 8.53217C185.936 7.66616 187.184 7.04758 188.204 7C188.318 8.18005 187.851 9.35059 187.146 10.2166ZM188.185 11.8534C186.527 11.7583 185.107 12.7956 184.325 12.7956C183.525 12.7956 182.324 11.901 181.009 11.9296C179.303 11.9581 177.721 12.9193 176.853 14.4515C175.062 17.5253 176.386 22.0647 178.121 24.5676C178.969 25.8047 179.979 27.1656 181.313 27.118C182.581 27.0704 183.077 26.2996 184.601 26.2996C186.136 26.2996 186.584 27.118 187.918 27.099C189.3 27.0704 190.167 25.8618 191.016 24.6247C191.978 23.2162 192.378 21.8553 192.397 21.7792C192.369 21.7507 189.729 20.7419 189.7 17.6966C189.672 15.1462 191.787 13.9376 191.883 13.8614C190.691 12.0914 188.833 11.901 188.185 11.8534ZM197.754 8.40845V26.9562H200.641V20.6182H204.635C208.285 20.6182 210.839 18.1153 210.839 14.499C210.839 10.8828 208.323 8.40845 204.73 8.40845H197.754ZM200.641 10.8352H203.967C206.474 10.8352 207.903 12.1675 207.903 14.5086C207.903 16.8496 206.474 18.201 203.958 18.201H200.641V10.8352ZM216.1 27.099C217.91 27.099 219.588 26.1854 220.35 24.7293H220.407V26.9562H223.076V17.7252C223.076 15.051 220.932 13.319 217.634 13.319C214.575 13.319 212.307 15.07 212.221 17.4682H214.823C215.042 16.3262 216.1 15.5744 217.548 15.5744C219.311 15.5744 220.303 16.3928 220.303 17.906V18.9338L216.7 19.1526C213.355 19.3525 211.544 20.7229 211.544 23.102C211.554 25.5002 213.422 27.099 216.1 27.099ZM216.881 24.9006C215.347 24.9006 214.365 24.1584 214.365 23.0354C214.365 21.8649 215.309 21.1892 217.11 21.0845L220.312 20.8847V21.9315C220.312 23.6635 218.835 24.9006 216.881 24.9006ZM226.65 32C229.461 32 230.786 30.9246 231.939 27.6795L237 13.4998H234.065L230.672 24.4534H230.615L227.222 13.4998H224.21L229.09 27.0038L228.823 27.8222C228.384 29.2116 227.67 29.7541 226.393 29.7541C226.164 29.7541 225.725 29.7255 225.544 29.7065V31.9334C225.716 31.9714 226.431 32 226.65 32Z" fill="#9BD3BE"/>
<g clip-path="url(#clip0_11_1392)">
<path d="M284.427 31.0375C279.778 30.6312 275.676 28.9055 273.003 26.2372C271.482 24.7162 270.559 23.0652 270.143 21.1201C269.951 20.2361 269.953 18.7671 270.143 17.875C270.723 15.171 272.472 12.805 275.223 11.0012C281.499 6.88512 291.112 6.90625 297.329 11.05C298.155 11.5992 298.688 12.0364 299.435 12.7725C300.378 13.7036 301.041 14.6282 301.74 15.99C301.766 16.0387 301.894 16.1037 302.026 16.1297C302.464 16.2207 303.054 16.5652 303.527 17.0072C303.894 17.3485 304.179 17.7222 304.879 18.7834C305.586 19.8526 308.786 24.791 308.981 25.1144C309.055 25.2411 308.906 25.4426 308.737 25.4426C308.618 25.4426 308.532 25.3614 308.357 25.0851L306.543 22.2706C303.456 17.4899 303.288 17.2689 302.429 16.8383L301.977 16.6107H300.649C299.323 16.6107 299.322 16.6124 299.289 16.7521C299.114 17.5159 299.081 17.7044 299.12 17.7401C299.145 17.7629 299.897 18.1919 300.794 18.6924L302.422 19.6056L302.321 19.8185C302.265 19.9355 302.201 20.033 302.178 20.033C302.156 20.033 300.784 19.2725 299.132 18.3446C297.477 17.4184 296.028 16.6319 295.911 16.5994C295.44 16.4694 294.718 16.9894 294.718 17.459C294.718 17.9335 294.859 18.0732 297.763 20.4506C299.575 21.9359 300.612 22.8264 300.77 23.0376C301.059 23.4211 301.35 23.9866 301.619 24.6821C302.091 25.9074 302.859 26.5899 304.119 26.9051L304.533 27.0091L304.499 27.2366C304.489 27.3238 304.469 27.4095 304.439 27.4917C304.385 27.5519 303.55 27.2854 303.067 27.053C302.312 26.6906 301.792 26.1739 301.281 25.2752C301.059 25.3421 300.84 25.4174 300.623 25.5011C299.988 25.7319 299.957 25.7514 299.356 26.338C296.795 28.8372 293.122 30.4346 288.686 30.9774C287.966 31.0667 285.192 31.1057 284.427 31.0375ZM288.842 30.2689C290.877 29.9991 292.454 29.5961 294.107 28.9201C295.841 28.21 297.476 27.1895 298.62 26.104L299.07 25.675L297.936 25.1339C296.723 24.5537 296.603 24.4579 296.449 23.9395C296.351 23.6145 296.462 23.2651 296.77 22.9304L297.013 22.6687L296.486 22.269C296.07 21.9521 295.94 21.814 295.859 21.6027C295.795 21.4384 295.773 21.2608 295.796 21.0859C295.818 20.9111 295.884 20.7446 295.987 20.6018L296.146 20.3775L294.484 20.085C293.85 19.9791 293.218 19.8588 292.589 19.7242C292.451 19.6706 292.328 19.5851 292.229 19.4747C292.13 19.3643 292.059 19.2321 292.021 19.0889C291.985 18.9394 292.801 14.9614 292.983 14.3926C293.046 14.2463 293.141 14.1157 293.261 14.0101C293.38 13.9045 293.522 13.8265 293.675 13.7816C293.949 13.7312 298.85 14.5925 299.094 14.7355C299.481 14.9597 299.603 15.3237 299.481 15.8811L299.429 16.1151H299.7C299.85 16.1151 300.204 16.0956 300.485 16.0745L300.999 16.0339L300.744 15.5626C299.973 14.1294 298.582 12.6896 296.863 11.5456C296.06 11.0126 294.349 10.1692 293.319 9.80037C291.718 9.24575 290.059 8.87822 288.374 8.70512C287.44 8.60762 284.991 8.60762 284.084 8.70675C281.908 8.944 279.934 9.43637 278.206 10.1725C274.209 11.8771 271.52 14.6997 270.832 17.9189C270.653 18.759 270.637 20.2312 270.803 20.9966C271.167 22.6866 271.962 24.1507 273.255 25.5141C275.888 28.288 279.913 29.9926 284.737 30.3794C285.382 30.4297 288.184 30.355 288.842 30.2689ZM287.96 27.2399C287.711 27.1684 287.459 26.871 287.407 26.5899C287.371 26.4046 287.414 26.2779 287.677 25.7676C288.743 23.7039 289.206 21.8075 289.206 19.5032C289.206 17.277 288.797 15.5464 287.778 13.4696C287.558 13.0244 287.38 12.61 287.38 12.5515C287.38 12.3305 287.565 12.0104 287.765 11.8852C288.039 11.7114 288.499 11.7439 288.72 11.9502C288.805 12.0315 289.024 12.3906 289.208 12.753C289.937 14.183 290.436 15.7544 290.683 17.3891C290.836 18.4015 290.867 20.319 290.745 21.2452C290.54 22.8866 290.068 24.4834 289.347 25.9724C288.909 26.8742 288.636 27.2464 288.405 27.2464C288.349 27.2478 288.294 27.2559 288.241 27.2707C288.146 27.2801 288.05 27.2696 287.96 27.2399ZM284.992 25.688C284.612 25.5759 284.336 25.1079 284.446 24.7569C284.474 24.6724 284.653 24.2807 284.846 23.8875C285.651 22.2787 285.994 20.4779 285.836 18.6859C285.699 17.2461 285.441 16.3377 284.791 15.0085C284.354 14.1164 284.334 13.9782 284.588 13.6207C284.828 13.2795 285.431 13.2226 285.746 13.5135C285.966 13.715 286.648 15.1385 286.91 15.9445C287.78 18.6168 287.646 21.5149 286.533 24.0955C285.961 25.4377 285.56 25.8521 284.992 25.688ZM281.934 24.1134C281.812 24.0543 281.705 23.9693 281.62 23.8643C281.534 23.7593 281.473 23.6369 281.44 23.5056C281.406 23.3529 281.463 23.1839 281.744 22.6167C282.771 20.5367 282.782 18.5315 281.777 16.4986C281.336 15.6049 281.326 15.4278 281.7 15.0751C281.884 14.9012 281.962 14.8704 282.22 14.8704C282.654 14.8704 282.88 15.0897 283.267 15.886C283.863 17.1112 284.108 18.174 284.105 19.5357C284.105 20.9332 283.876 21.8952 283.239 23.1871C282.873 23.9265 282.693 24.1215 282.329 24.1719C282.195 24.1839 282.059 24.1638 281.934 24.1134ZM279.079 22.6476C278.858 22.5308 278.692 22.3326 278.614 22.0951C278.544 21.8481 278.601 21.6515 278.882 21.19C279.243 20.5969 279.328 20.28 279.328 19.5032C279.328 18.7281 279.243 18.4096 278.882 17.8165C278.776 17.6469 278.684 17.468 278.609 17.2819C278.494 16.8919 278.819 16.4125 279.256 16.3296C279.627 16.2597 279.882 16.4271 280.223 16.9585C280.707 17.7261 280.963 18.6148 280.963 19.5219C280.963 20.4291 280.707 21.3178 280.223 22.0854C279.874 22.6249 279.485 22.8166 279.079 22.6476ZM300.35 25.0412C300.68 24.9226 300.966 24.8121 300.984 24.7926C301.004 24.7747 300.94 24.5635 300.843 24.323C300.644 23.8322 300.677 23.8436 299.975 23.9785C299.214 24.1247 298.774 23.9947 297.944 23.3837C297.716 23.2164 297.484 23.0799 297.424 23.0799C297.365 23.0799 297.237 23.166 297.136 23.2732C296.925 23.5007 296.892 23.8582 297.065 24.0695C297.216 24.2531 299.302 25.246 299.551 25.2509C299.66 25.2541 300.02 25.1599 300.35 25.0412ZM300.022 23.4439C300.331 23.3821 300.365 23.361 300.311 23.2619C300.253 23.1514 297.367 20.7561 297.117 20.6099C296.91 20.4896 296.743 20.5173 296.572 20.7009C296.07 21.2371 296.129 21.3509 297.427 22.347C298.993 23.5462 299.159 23.6177 300.022 23.4439ZM296.148 19.8185C296.148 19.8022 295.821 19.5211 295.42 19.1929C294.432 18.3787 294.221 18.0749 294.221 17.4736C294.221 16.9699 294.556 16.4856 295.095 16.2061C295.414 16.0631 295.771 16.0305 296.111 16.1135C296.302 16.1753 297.164 16.6416 298.358 17.329L298.61 17.4736L298.818 16.4889C299.029 15.4814 299.034 15.2181 298.837 15.1564C297.986 14.9934 297.133 14.8385 296.278 14.6916C293.884 14.2691 293.623 14.2447 293.512 14.4251C293.452 14.5226 292.542 18.7411 292.542 18.9215C292.542 19.0109 292.588 19.123 292.643 19.1685C292.698 19.2156 293.475 19.383 294.369 19.5422C296.094 19.8526 296.148 19.8607 296.148 19.8185Z" fill="#9BD3BE"/>
</g>
<defs>
<clipPath id="clip0_11_1392">
<rect width="39" height="39" fill="white" transform="translate(270)"/>
</clipPath>
</defs>
</svg>
