<svg width="500" height="500" viewBox="0 0 500 500" fill="none" xmlns="http://www.w3.org/2000/svg">
<path d="M436.29 192.83C421.09 161.42 383.99 140.83 350.01 148.7C341.22 150.7 332.62 154.52 323.6 154.09C310.6 153.47 299.6 144.18 291.94 133.68C284.28 123.18 278.94 111.12 270.94 100.87C252.4 77.08 220.36 65.63 190.41 69.1C160.46 72.57 133 89.78 114 113.21C80.8998 154.13 73.9998 214.55 97.1498 261.86C120.3 309.17 192 354.91 244.6 353.91L238.6 354.22C273.16 359.06 308.82 359.52 342.48 350.32C376.14 341.12 407.75 321.57 426.99 292.46C446.23 263.35 451.48 224.24 436.29 192.83Z" fill="#EBEBEB"/>
<path d="M474.45 460.16C474.45 460.31 377.15 460.42 257.15 460.42C137.15 460.42 39.8398 460.31 39.8398 460.16C39.8398 460.01 137.11 459.9 257.15 459.9C377.19 459.9 474.45 460 474.45 460.16Z" fill="#263238"/>
<path d="M105.5 253C91.2303 231.17 93.3103 200 110.35 180.27C115.64 174.14 123.03 168.82 131.09 169.51C139.35 170.21 146 177.29 148.51 185.19C151.02 193.09 150.15 201.64 148.68 209.79C146.61 221.21 143.15 232.89 135.23 241.37C127.31 249.85 115.68 258.57 105.5 253Z" fill="#92E3A9"/>
<path d="M113.39 358C108.01 345.46 111.91 329.59 122.48 321C125.76 318.32 130.05 316.25 134.14 317.33C138.23 318.41 141.14 322.7 141.69 326.99C142.24 331.28 141.05 335.62 139.55 339.68C137.45 345.38 134.61 351.08 129.76 354.73C124.91 358.38 118.13 361.82 113.39 358.03" fill="#92E3A9"/>
<path d="M79.0003 350.55C82.9303 331.2 72.7303 309.86 55.2203 300.75C49.7803 297.92 43.0903 296.25 37.6103 298.99C32.1303 301.73 29.3103 308.64 29.7503 314.9C30.1903 321.16 33.2103 326.9 36.5303 332.25C41.1803 339.71 46.8803 346.95 54.8303 350.7C62.7803 354.45 73.4003 357.31 79.0003 350.55Z" fill="#92E3A9"/>
<path d="M81.4602 298.24C88.2902 276.19 76.7002 249.47 57.4002 236.82C51.4002 232.9 43.8202 230.16 37.1302 232.71C30.2802 235.32 26.3402 242.97 26.1302 250.3C25.9202 257.63 28.7402 264.7 31.9802 271.3C36.5202 280.51 42.3002 289.61 51.1102 294.9C59.9202 300.19 74.1602 305.47 81.4702 298.26" fill="#92E3A9"/>
<path d="M95.1702 406C95.0633 405.651 94.9896 405.293 94.9502 404.93C94.8302 404.13 94.6802 403.11 94.4902 401.85C94.4002 401.18 94.3002 400.43 94.1802 399.63C94.0602 398.83 93.8602 397.94 93.6802 397.01C93.3202 395.13 92.9502 393.01 92.3302 390.65C92.0502 389.48 91.7502 388.25 91.4402 386.98C91.1302 385.71 90.6902 384.4 90.2902 383.04C89.5602 380.31 88.4702 377.48 87.4502 374.46C85.0081 367.999 82.166 361.697 78.9402 355.59C75.6397 349.528 71.9659 343.677 67.9402 338.07C65.9402 335.55 64.2302 333.07 62.3602 330.96L59.7002 327.8L57.1302 325C55.5202 323.2 53.9402 321.7 52.5702 320.37L50.6702 318.5L49.0002 317L46.6802 315C46.3897 314.776 46.1308 314.513 45.9102 314.22C46.2225 314.402 46.5171 314.613 46.7902 314.85L49.2202 316.85L51.0002 318.2L53.0002 320.02C54.4102 321.32 56.0002 322.8 57.6702 324.58L60.3002 327.32L63.0002 330.44C64.9102 332.56 66.7002 335.02 68.6802 337.54C72.7843 343.151 76.5124 349.027 79.8402 355.13C83.0811 361.272 85.9171 367.618 88.3302 374.13C89.3302 377.13 90.4002 380.02 91.1002 382.79C91.4902 384.15 91.8602 385.48 92.2102 386.79C92.5602 388.1 92.7802 389.32 93.0502 390.5C93.6202 392.86 93.9502 395.02 94.2602 396.92C94.4202 397.86 94.5602 398.75 94.6902 399.57C94.8202 400.39 94.8502 401.12 94.9202 401.81C95.0402 403.07 95.1302 404.1 95.2102 404.91C95.2429 405.274 95.2295 405.64 95.1702 406Z" fill="#263238"/>
<path d="M94.6702 409.94C94.6437 409.794 94.6437 409.645 94.6702 409.5C94.6702 409.15 94.7302 408.74 94.7602 408.22C94.8802 407.02 95.0302 405.39 95.2202 403.32C95.3202 402.25 95.4402 401.07 95.5702 399.79C95.7002 398.51 95.7002 397.08 95.7802 395.57C95.8902 392.57 96.1802 389.1 96.0702 385.28C96.0702 383.373 96.0702 381.373 96.0702 379.28C96.0702 377.2 95.8602 375.04 95.7502 372.81C95.6002 368.32 94.9902 363.57 94.4502 358.55C92.9806 347.716 90.7213 337.004 87.6902 326.5C84.4975 316.056 80.5401 305.862 75.8502 296C73.5702 291.5 71.4902 287.18 69.1702 283.34C68.0402 281.4 67.0302 279.49 65.9102 277.73C64.7902 275.97 63.7102 274.3 62.6702 272.73C60.6702 269.47 58.5602 266.73 56.8202 264.26C55.9302 263.04 55.1302 261.87 54.3402 260.84L52.1202 258L49.1202 254.14L48.3502 253.14C48.1802 252.91 48.0902 252.78 48.1102 252.77C48.1302 252.76 48.2202 252.86 48.4202 253.08L49.2702 254.08L52.4502 257.83L54.7402 260.56C55.5502 261.56 56.3702 262.73 57.2902 263.94C59.0802 266.4 61.2402 269.11 63.2902 272.35C64.3502 273.95 65.4502 275.63 66.5902 277.35C67.7302 279.07 68.7602 281.02 69.9102 282.95C72.2702 286.79 74.3902 291.12 76.7002 295.62C81.4457 305.531 85.4337 315.787 88.6302 326.3C91.6796 336.852 93.926 347.619 95.3502 358.51C95.8602 363.51 96.4502 368.32 96.5602 372.82C96.6502 375.07 96.8302 377.24 96.8302 379.33C96.8302 381.42 96.8302 383.42 96.8302 385.33C96.9002 389.15 96.5602 392.61 96.4002 395.64C96.2902 397.16 96.2302 398.57 96.1102 399.87C95.9902 401.17 95.8102 402.33 95.6802 403.4C95.4102 405.46 95.2002 407.09 95.0502 408.28C94.9802 408.79 94.9202 409.21 94.8702 409.55C94.825 409.69 94.7575 409.822 94.6702 409.94Z" fill="#263238"/>
<path d="M131.81 195.87C131.81 195.87 131.76 196.02 131.63 196.28C131.5 196.54 131.26 196.96 131.01 197.42L128.58 201.78C128.05 202.72 127.42 203.78 126.82 204.92L124.91 208.76C124.243 210.14 123.51 211.607 122.71 213.16C121.97 214.74 121.26 216.45 120.47 218.21C119.68 219.97 118.85 221.83 118.06 223.79L115.69 229.93C115.28 230.99 114.87 232.07 114.45 233.17L113.3 236.57C112.52 238.86 111.73 241.23 110.91 243.65C107.91 253.43 105.02 264.32 102.6 275.88C100.18 287.44 98.6002 298.61 97.4002 308.78C96.4002 318.96 95.5902 328.16 95.4002 335.9C95.2002 339.77 95.1602 343.27 95.1502 346.35C95.1402 349.43 95.0902 352.08 95.1502 354.24C95.2102 356.4 95.2102 358.02 95.2202 359.24V360.54C95.2441 360.689 95.2441 360.841 95.2202 360.99C95.1876 360.845 95.1675 360.698 95.1602 360.55C95.1602 360.2 95.1602 359.78 95.0702 359.25C95.0702 358.04 94.9302 356.37 94.8302 354.25C94.7302 352.13 94.6602 349.43 94.6602 346.35C94.6602 343.27 94.6601 339.76 94.7701 335.88C94.9001 328.12 95.6001 318.88 96.5901 308.68C97.7601 298.49 99.3902 287.31 101.73 275.68C104.07 264.05 107.06 253.17 110.14 243.38L112.57 236.28C112.97 235.14 113.36 234 113.74 232.89C114.12 231.78 114.6 230.71 115.02 229.65C115.86 227.52 116.66 225.47 117.44 223.5C118.22 221.53 119.13 219.71 119.92 217.93C120.71 216.15 121.46 214.47 122.22 212.93C122.98 211.39 123.78 209.93 124.49 208.54L126.49 204.73C127.12 203.57 127.77 202.55 128.32 201.62L130.91 197.34L131.61 196.25C131.66 196.115 131.727 195.987 131.81 195.87Z" fill="#263238"/>
<path d="M127 329.77C126.571 330.697 126.066 331.586 125.49 332.43C124.49 334.1 123.01 336.56 121.33 339.65C119.65 342.74 117.8 346.49 115.93 350.74C113.942 355.368 112.189 360.094 110.68 364.9C109.209 369.719 107.981 374.608 107 379.55C106.14 384.11 105.54 388.26 105.2 391.75C104.86 395.24 104.64 398.09 104.56 400.06C104.561 401.082 104.478 402.102 104.31 403.11C104.195 402.094 104.158 401.071 104.2 400.05C104.2 398.05 104.27 395.21 104.55 391.69C104.876 387.566 105.41 383.46 106.15 379.39C107.077 374.403 108.283 369.472 109.76 364.62C111.28 359.782 113.066 355.031 115.11 350.39C116.794 346.612 118.666 342.92 120.72 339.33C122.49 336.27 124.01 333.85 125.15 332.23C125.699 331.361 126.318 330.538 127 329.77Z" fill="#263238"/>
<path d="M67.1504 396.15H129.82L122.24 460.16H74.9604L67.1504 396.15Z" fill="#455A64"/>
<path d="M69.4399 453.25L74.7599 460.16H122.24L127.72 453.48L69.4399 453.25Z" fill="#263238"/>
<path d="M127.38 415C127.38 415.26 114.38 415.47 98.3804 415.47C82.3804 415.47 69.3804 415.26 69.3804 415C69.3804 414.74 82.3804 414.53 98.4304 414.53C114.48 414.53 127.38 414.72 127.38 415Z" fill="#FAFAFA"/>
<path d="M127.38 419.24C127.38 419.5 114.38 419.71 98.3804 419.71C82.3804 419.71 69.3804 419.5 69.3804 419.24C69.3804 418.98 82.3804 418.77 98.4304 418.77C114.48 418.77 127.38 419 127.38 419.24Z" fill="#FAFAFA"/>
<path d="M126.6 423.37C126.6 423.63 114.05 423.83 98.6001 423.83C83.1501 423.83 70.6001 423.63 70.6001 423.37C70.6001 423.11 83.1501 422.9 98.6001 422.9C114.05 422.9 126.6 423.11 126.6 423.37Z" fill="#FAFAFA"/>
<path d="M332.49 149.71L341.31 134.16C335.841 125.302 333.882 114.719 335.819 104.491C337.756 94.2623 343.449 85.1283 351.779 78.8842C360.108 72.64 370.473 69.7374 380.834 70.7467C391.195 71.7561 400.804 76.6046 407.772 84.339C414.74 92.0735 418.563 102.135 418.49 112.545C418.416 122.955 414.451 132.961 407.375 140.596C400.299 148.231 390.622 152.944 380.248 153.807C369.873 154.67 359.551 151.621 351.31 145.26L332.49 149.71Z" fill="#FAFAFA"/>
<path d="M332.49 149.71L351.28 145.16L351.21 145.36L350.61 144.58L351.39 145.18C354.027 147.199 356.889 148.904 359.92 150.26C363.528 151.85 367.342 152.921 371.25 153.44C373.413 153.736 375.599 153.84 377.78 153.75C378.9 153.68 380.05 153.65 381.2 153.55L384.68 153.01C395.035 150.95 404.218 145.03 410.37 136.45C413.785 131.703 416.148 126.283 417.3 120.55C418.482 114.491 418.311 108.246 416.8 102.26C415.254 96.0005 412.237 90.2 408 85.34L406.32 83.5C405.77 82.87 405.11 82.3601 404.51 81.7901C403.919 81.2181 403.298 80.6774 402.65 80.17L400.65 78.6901C400.014 78.1969 399.346 77.7459 398.65 77.34L396.56 76.07L394.34 75C393.626 74.626 392.892 74.2922 392.14 74C386.287 71.6843 379.989 70.7137 373.71 71.1601C367.771 71.563 361.994 73.2702 356.79 76.1601C351.939 78.8433 347.675 82.4714 344.25 86.8301C341.11 90.8101 338.718 95.3265 337.19 100.16C335.906 104.512 335.289 109.033 335.36 113.57C335.465 117.513 336.139 121.42 337.36 125.17C338.37 128.293 339.743 131.287 341.45 134.09V134.15V134.22L332.52 149.7L341.24 134.09V134.22C339.5 131.394 338.097 128.373 337.06 125.22C335.837 121.443 335.163 117.509 335.06 113.54C334.969 108.961 335.576 104.396 336.86 100C340.093 89.6718 347.161 80.9753 356.61 75.7C361.879 72.775 367.728 71.0473 373.74 70.64C380.093 70.1805 386.467 71.1581 392.39 73.5C393.155 73.7839 393.9 74.118 394.62 74.5L396.83 75.57L398.94 76.85C399.657 77.2776 400.346 77.752 401 78.27L403 79.7601C403.655 80.2775 404.282 80.8282 404.88 81.4101C405.519 81.9521 406.13 82.5262 406.71 83.13L408.41 85C412.706 89.9139 415.764 95.7838 417.33 102.12C418.863 108.178 419.03 114.5 417.82 120.63C416.662 126.425 414.275 131.905 410.82 136.7C404.591 145.369 395.294 151.34 384.82 153.4L381.3 153.93C380.14 154.03 378.98 154.05 377.85 154.12C375.648 154.204 373.443 154.093 371.26 153.79C367.322 153.246 363.481 152.149 359.85 150.53C356.805 149.15 353.932 147.418 351.29 145.37L351.48 145.19L351.6 145.35H351.41L332.49 149.71Z" fill="#263238"/>
<path d="M358.71 111.1C358.71 106.52 362.28 103.1 367.15 103.1C372.02 103.1 375.58 106.47 375.58 111.1C375.58 115.73 371.99 119.1 367.15 119.1C362.31 119.1 358.71 115.68 358.71 111.1ZM371.97 111.1C371.949 110.149 371.647 109.226 371.103 108.446C370.559 107.666 369.796 107.065 368.912 106.716C368.027 106.368 367.059 106.288 366.129 106.487C365.199 106.687 364.349 107.156 363.685 107.837C363.021 108.518 362.572 109.379 362.396 110.314C362.219 111.248 362.322 112.214 362.693 113.09C363.063 113.966 363.683 114.713 364.476 115.238C365.269 115.763 366.199 116.042 367.15 116.04C367.801 116.062 368.449 115.948 369.053 115.706C369.657 115.464 370.205 115.1 370.661 114.635C371.116 114.171 371.471 113.617 371.702 113.008C371.932 112.4 372.034 111.75 372 111.1H371.97Z" fill="#263238"/>
<path d="M383.88 112.76L381.81 114.91V118.81H378.27V103.4H381.81V110.6L388.64 103.4H392.64L386.26 110.27L393.02 118.81H388.86L383.88 112.76Z" fill="#263238"/>
<path d="M303.78 174.33C301.15 180.88 301.23 194.42 305.6 199.95C307.88 202.84 310.98 205.15 312.6 208.46C314.72 212.8 313.81 218.2 311.15 222.23C308.49 226.26 304.3 229.08 299.89 231.06C294.98 233.28 288.97 234.5 284.39 231.66C280.89 229.5 279.04 225.45 277.92 221.49C274.78 210.41 275.92 198.49 279.18 187.41C282.44 176.33 287.75 166 293 155.78" fill="#263238"/>
<path d="M318.36 266.16L341.8 251.85C341.8 251.85 324 217.56 321.32 216.32C318.64 215.08 282.71 209.79 282.71 209.79C271.78 226.97 258.1 222.73 244.31 211.27C243.08 211.52 221.38 216.46 215.71 217.2C210.04 217.94 193.71 243.96 193.71 243.96L212.23 276.35L213.63 309.91C213.63 309.91 214.63 333.78 210.72 346.1L309 349.29C307.925 344.172 307.171 338.992 306.74 333.78C306.37 329.61 305.24 325.45 306.09 320.09C308.78 303.07 318.36 266.16 318.36 266.16Z" fill="#92E3A9"/>
<path d="M205.22 227.34C206.7 232.28 219.22 239.6 223.62 236.86C225.01 235.99 226.21 234.69 227.82 234.38C229.82 233.98 231.75 235.26 233.7 235.91C238.28 237.42 244.15 235.73 247.45 239.24C249.08 240.97 250.11 243.91 252.45 243.84C253.292 243.7 254.116 243.472 254.91 243.16C257.56 242.5 260.13 244.53 262.86 244.72C264.291 244.733 265.713 244.493 267.06 244.01L286.66 238.27C288.08 237.85 289.66 237.27 290.27 235.93C287.922 236.668 285.389 236.561 283.11 235.63C281.898 234.961 280.622 234.414 279.3 234C275.84 233.29 272.69 236 269.25 236.85C265.63 237.7 261.9 236.35 258.43 235.01L240.66 228.18C235.76 226.3 230.74 224.34 226.85 220.83C225.61 219.72 220.96 222.06 219.51 221.26C217.824 220.12 216.214 218.87 214.69 217.52C214.39 217.3 211.69 219.73 210.5 221.01C209.31 222.29 205.22 227.34 205.22 227.34Z" fill="#FAFAFA"/>
<path d="M213.68 309.91C218.04 308.07 225.52 305.17 230.17 304.3C233.595 303.554 237.119 303.378 240.6 303.78C242.33 304.03 244.12 304.5 245.8 304C247.48 303.5 248.61 302.28 250.09 301.55C254.34 299.46 259.42 302.06 264.09 301.45C265.271 301.37 266.38 300.853 267.2 300C267.587 299.561 267.795 298.993 267.784 298.408C267.773 297.823 267.543 297.264 267.14 296.84C266.587 296.45 265.927 296.241 265.25 296.24C263.012 296.087 260.764 296.113 258.53 296.32L254.92 296.55C253.423 296.73 251.906 296.662 250.43 296.35C249.021 295.844 247.654 295.229 246.34 294.51C241.52 292.39 235.99 293.34 230.78 294.07C228.197 294.576 225.543 294.603 222.95 294.15C222.088 293.866 221.188 293.711 220.28 293.69C218.75 293.78 217.46 294.91 215.95 295.16C214.44 295.41 214.35 292.52 212.95 292.16L213.68 309.91Z" fill="#FAFAFA"/>
<path d="M309.31 264.94C308.775 265.289 308.183 265.543 307.56 265.69C304.73 266.08 302.99 261.1 300.28 262.01C299.28 262.36 298.55 263.57 297.44 263.7C296.33 263.83 295.31 262.58 294.17 262.07C292.17 261.17 289.91 262.79 287.69 262.97C285.19 263.16 282.27 261.6 280.4 263.28C279.67 263.93 279.25 265.02 278.3 265.28C277.35 265.54 276.54 264.89 275.65 264.62C272.93 263.81 270.44 266.43 267.65 266.91C264.47 267.46 260.65 265.31 258.26 267.44C257.4 268.19 256.88 269.44 255.78 269.73C254.68 270.02 253.7 269.39 252.64 269.38C250.2 269.38 247.96 272.6 245.9 271.28C246.074 271.849 246.419 272.351 246.887 272.718C247.356 273.085 247.926 273.298 248.52 273.33C249.705 273.379 250.891 273.278 252.05 273.03C258.96 272.18 265.98 276.68 272.68 274.79C274.53 274.27 276.26 273.27 278.17 273.13C281.75 272.87 284.99 275.65 288.57 275.52C291.36 275.41 293.95 273.52 296.73 273.86C299.51 274.2 301.65 276.69 304.25 277.92C307.36 279.4 311 278.97 314.42 278.51L315.42 278.28C317.03 273.88 318.179 269.326 318.85 264.69C317.347 263.998 315.705 263.661 314.051 263.704C312.397 263.747 310.775 264.17 309.31 264.94Z" fill="#FAFAFA"/>
<path d="M301.26 324.79C299.901 324.938 298.609 325.46 297.53 326.3C296.452 327.146 295.12 327.604 293.75 327.6C291.29 327.34 289.09 324.32 286.94 325.54C286.402 325.953 285.897 326.408 285.43 326.9C283.93 328.13 281.54 327.79 280.11 329.1C279.37 329.77 278.97 330.83 278.06 331.26C276.35 332.06 274.73 330.08 273 329.31C270.3 328.1 267.23 329.98 264.27 329.92C262.77 329.92 261.18 329.37 259.82 329.99C259.118 330.411 258.449 330.886 257.82 331.41C255.56 332.92 252.52 332.22 249.99 331.21C247.46 330.2 244.82 328.93 242.15 329.46C241.41 329.61 240.57 330.07 240.59 330.83C240.611 331.123 240.715 331.404 240.89 331.64C242.47 334.24 245.49 335.58 248.42 336.43C251.63 337.36 255.02 337.9 257.88 339.64C259.69 340.73 261.59 342.36 263.63 341.8C265.25 341.36 266.24 339.68 267.8 339.08C270 338.23 272.61 339.77 274.8 338.86C275.53 338.56 276.14 338 276.88 337.73C278.81 337.03 280.96 338.44 282.96 337.99C283.642 337.719 284.354 337.531 285.08 337.43C286.99 337.43 288.23 340.06 290.08 339.81C291.24 339.65 292.03 338.42 293.19 338.21C294.72 337.92 296.45 339.47 297.69 338.53C297.97 338.32 298.19 337.98 298.55 337.95C298.91 337.92 299.34 338.44 299.63 338.84C300.98 340.62 305.1 339.47 307.18 338.66L305.83 326.66C305.9 325.14 302.63 324.79 301.26 324.79Z" fill="#FAFAFA"/>
<g opacity="0.3">
<path d="M217 227.76C215.14 233.64 214.41 240.08 216.26 245.96C217.244 248.64 218.39 251.258 219.69 253.8C223.744 262.709 225.465 272.503 224.69 282.26C224.616 282.597 224.658 282.95 224.81 283.26C225.2 283.91 226.19 283.67 226.88 283.36L231.31 281.36C233.23 282.92 233.52 286.01 235.64 287.27C237.76 288.53 240.71 287.12 242.83 285.58C247.48 282.17 251.89 278.21 254.59 273.11C256.299 269.538 257.565 265.77 258.36 261.89C259.19 258.5 260.03 255.11 260.55 251.66C262.578 237.981 259.61 224.029 252.19 212.36" fill="black"/>
</g>
<path d="M310.91 233C311.006 233.162 311.076 233.337 311.12 233.52C311.26 233.93 311.44 234.43 311.65 235.05C312.1 236.45 312.72 238.37 313.48 240.7C314.24 243.03 315.14 245.96 316.14 249.1C317.267 252.532 318.109 256.05 318.66 259.62C319.088 263.224 318.909 266.875 318.13 270.42C317.51 273.304 316.668 276.136 315.61 278.89C314.73 281.24 313.93 283.11 313.37 284.4C313.103 284.987 312.883 285.477 312.71 285.87C312.643 286.048 312.552 286.216 312.44 286.37C312.471 286.183 312.528 286.001 312.61 285.83L313.18 284.32C313.69 283.01 314.43 281.12 315.27 278.77C316.264 276.016 317.063 273.196 317.66 270.33C318.396 266.829 318.558 263.233 318.14 259.68C317.597 256.14 316.775 252.65 315.68 249.24C314.68 246.08 313.86 243.24 313.13 240.81C312.4 238.38 311.87 236.53 311.46 235.11L311.02 233.55C310.958 233.373 310.921 233.188 310.91 233Z" fill="#263238"/>
<g opacity="0.3">
<path d="M319.56 262.6C320.969 257.77 320.797 252.616 319.07 247.89C317.349 243.198 315.012 238.756 312.12 234.68C313.5 244.14 317.83 253.04 318.69 262.57" fill="black"/>
</g>
<g opacity="0.3">
<path d="M239.72 323.19C243.945 317.536 249.613 313.121 256.13 310.41C262.624 307.72 269.453 305.927 276.43 305.08C279.18 304.68 282.17 304.4 284.58 305.79C286.99 307.18 288.13 310.95 286.03 312.79C284.875 313.598 283.489 314.011 282.08 313.97C272.46 314.67 262.3 314.7 253.98 319.6C250.69 321.53 247.77 324.19 244.14 325.36C242.49 325.89 240.05 325.59 239.88 323.87" fill="black"/>
</g>
<path d="M288.76 303.79C288.568 303.811 288.373 303.811 288.18 303.79H286.52H285.31L283.89 303.88C282.89 303.96 281.7 304 280.42 304.19L278.42 304.44C277.72 304.54 277.01 304.69 276.26 304.82C274.76 305.06 273.19 305.47 271.53 305.82C267.96 306.785 264.461 307.998 261.06 309.45C257.668 310.933 254.371 312.626 251.19 314.52C249.73 315.41 248.34 316.25 247.1 317.12C245.86 317.99 244.68 318.77 243.63 319.53C242.58 320.29 241.63 321.01 240.85 321.63C240.07 322.25 239.34 322.81 238.79 323.27L237.49 324.27C237.345 324.399 237.183 324.51 237.01 324.6C237.133 324.45 237.271 324.313 237.42 324.19L238.65 323.07C239.19 322.58 239.86 322 240.65 321.36C241.44 320.72 242.34 319.95 243.39 319.19C244.44 318.43 245.56 317.55 246.83 316.71C248.1 315.87 249.47 314.97 250.92 314.06C254.107 312.13 257.417 310.413 260.83 308.92C264.255 307.454 267.785 306.247 271.39 305.31C273.07 304.93 274.65 304.52 276.16 304.31C276.92 304.19 277.64 304.04 278.34 303.95L280.34 303.74C281.63 303.57 282.8 303.55 283.83 303.5C284.35 303.5 284.83 303.45 285.27 303.45H286.48L288.15 303.51C288.368 303.568 288.574 303.663 288.76 303.79Z" fill="#263238"/>
<g opacity="0.3">
<path d="M207.65 250.53C205.1 254.06 204.81 258.82 205.86 263.04C206.91 267.26 209.14 271.04 211.36 274.82C211.66 271.071 211.37 267.299 210.5 263.64C209.45 259.26 207.57 255 207.58 250.49" fill="black"/>
</g>
<path d="M278.88 115.32C278.94 112.13 282.58 109.87 285.73 110.41C288.88 110.95 291.34 113.5 292.81 116.33C294.28 119.16 294.99 122.33 296.1 125.33C299.1 133.33 304.99 140.22 307.1 148.54C308.467 154.447 308.281 160.607 306.56 166.42C304.849 172.194 302.491 177.756 299.53 183C297.683 186.149 296.127 189.459 294.88 192.89C293.629 196.35 293.514 200.119 294.55 203.65C294.775 204.096 294.825 204.609 294.69 205.09C294.38 205.77 293.41 205.8 292.69 205.61C289.02 204.67 286.48 201.06 285.85 197.32C285.22 193.58 286.18 189.76 287.52 186.21C288.86 182.66 290.58 179.21 291.57 175.6C293.73 167.6 292.23 159.12 291.85 150.83C291.64 146.16 291.79 141.44 290.85 136.83C289.91 132.22 287.74 127.69 283.85 125.08C282.34 124.08 280.6 123.34 279.33 122.08C278.06 120.82 277.42 118.57 278.57 117.15" fill="#263238"/>
<path d="M282.17 208.07C282.17 208.07 282.06 203.23 282.06 203.28C282.06 203.33 296.39 200.55 298.92 181.72C300.18 172.36 299.35 157.07 298.27 144.59C297.27 133.35 289.51 119.71 278.32 121.16L243.51 130.84C240.12 131.28 239 134.19 239.15 137.62L238.9 139.23L241.8 192.92L242.8 201.92C243.31 212.13 252.18 222.92 263.12 223.2C273.68 223.72 282.31 219.37 282.17 208.07Z" fill="#FFBE9D"/>
<path d="M291.87 156.7C291.889 157.328 291.663 157.938 291.239 158.401C290.815 158.864 290.227 159.144 289.6 159.18C289.295 159.212 288.986 159.182 288.692 159.092C288.399 159.003 288.126 158.855 287.89 158.659C287.654 158.462 287.46 158.22 287.319 157.947C287.178 157.674 287.094 157.376 287.07 157.07C287.051 156.444 287.276 155.835 287.698 155.372C288.119 154.909 288.705 154.629 289.33 154.59C289.636 154.558 289.945 154.588 290.239 154.678C290.534 154.767 290.807 154.914 291.044 155.111C291.28 155.307 291.475 155.549 291.617 155.822C291.759 156.095 291.845 156.393 291.87 156.7Z" fill="#263238"/>
<path d="M295 153.14C294.71 153.46 292.86 152.14 290.27 152.22C287.68 152.3 285.81 153.63 285.53 153.32C285.38 153.18 285.67 152.61 286.53 151.98C287.634 151.182 288.957 150.742 290.32 150.72C291.664 150.681 292.985 151.074 294.09 151.84C294.9 152.43 295.19 153 295 153.14Z" fill="#263238"/>
<path d="M269.85 158C269.56 158.32 267.7 157 265.11 157.09C262.52 157.18 260.66 158.49 260.37 158.18C260.23 158.05 260.52 157.47 261.37 156.85C262.474 156.049 263.797 155.606 265.16 155.58C266.508 155.546 267.832 155.942 268.94 156.71C269.71 157.28 270 157.84 269.85 158Z" fill="#263238"/>
<path d="M279.55 172.69C279.55 172.54 281.14 172.22 283.74 171.83C284.4 171.74 285.02 171.6 285.12 171.14C285.161 170.455 284.99 169.774 284.63 169.19L282.56 164.19C279.68 157.08 277.56 151.19 277.86 151.12C278.16 151.05 280.72 156.67 283.6 163.78C284.267 165.533 284.934 167.2 285.6 168.78C286.037 169.565 286.182 170.479 286.01 171.36C285.918 171.596 285.774 171.808 285.589 171.981C285.403 172.154 285.182 172.284 284.94 172.36C284.576 172.467 284.2 172.527 283.82 172.54C281.19 172.78 279.56 172.83 279.55 172.69Z" fill="#263238"/>
<path d="M282.06 203.28C273.231 203.622 264.479 201.507 256.78 197.17C256.78 197.17 263.43 210.27 282.17 208.07L282.06 203.28Z" fill="#EB996E"/>
<path d="M269.75 151.43C269.46 152.12 266.9 151.63 263.84 151.8C260.78 151.97 258.28 152.66 257.92 152C257.76 151.69 258.22 151.05 259.26 150.43C260.625 149.669 262.149 149.241 263.71 149.18C265.274 149.083 266.838 149.364 268.27 150C269.36 150.52 269.88 151.1 269.75 151.43Z" fill="#263238"/>
<path d="M294.65 145.15C294.13 145.75 292 145.15 289.47 145.23C286.94 145.31 284.79 145.73 284.28 145.13C284.06 144.83 284.38 144.24 285.28 143.66C286.558 142.952 287.995 142.58 289.455 142.58C290.916 142.58 292.353 142.952 293.63 143.66C294.57 144.26 294.88 144.86 294.65 145.15Z" fill="#263238"/>
<path d="M277.62 178.12C277.232 177.631 276.742 177.233 276.184 176.953C275.626 176.674 275.014 176.519 274.39 176.5C273.682 176.522 272.986 176.692 272.347 176.998C271.708 177.305 271.141 177.741 270.68 178.28L270.61 178.34L270.48 178.48C270.12 178.864 269.895 179.356 269.84 179.88C269.832 180.468 269.969 181.049 270.237 181.571C270.506 182.094 270.898 182.544 271.38 182.88C272.125 183.448 273.027 183.771 273.964 183.807C274.9 183.843 275.824 183.589 276.61 183.08C277.375 182.535 277.905 181.72 278.092 180.799C278.28 179.878 278.111 178.921 277.62 178.12Z" fill="#EB996E"/>
<path d="M270.9 175.61C271.05 175.61 271.17 176.21 271.58 177.06C272.107 178.151 272.932 179.07 273.96 179.71C275.01 180.313 276.211 180.602 277.42 180.54C278.36 180.54 278.95 180.32 279.02 180.46C279.09 180.6 278.55 181 277.51 181.24C276.119 181.527 274.672 181.284 273.45 180.56C272.23 179.833 271.33 178.672 270.93 177.31C270.64 176.28 270.78 175.61 270.9 175.61Z" fill="#263238"/>
<path d="M282.6 121.47C282.497 122.412 282.625 123.366 282.974 124.248C283.322 125.129 283.88 125.913 284.6 126.53C286.061 127.744 287.638 128.809 289.31 129.71C294.31 132.83 296.78 139.65 299.12 145.06C303.24 137.21 296.91 127.06 291.67 120.91C290.775 119.763 289.669 118.799 288.41 118.07C287.775 117.711 287.067 117.502 286.339 117.459C285.611 117.416 284.883 117.539 284.21 117.82" fill="#263238"/>
<path d="M299.17 184.08C299.225 183.841 299.298 183.607 299.39 183.38L300.11 181.44C300.68 179.73 301.52 177.26 302.27 174.13C304.226 165.947 304.69 157.478 303.64 149.13C303.116 144.55 302.027 140.053 300.4 135.74C299.083 132.215 296.94 129.056 294.15 126.53C292.253 124.845 290 123.608 287.56 122.91C285.83 122.46 284.82 122.46 284.82 122.4C285.063 122.374 285.308 122.374 285.55 122.4C286.244 122.453 286.933 122.56 287.61 122.72C290.117 123.347 292.44 124.556 294.39 126.25C297.263 128.787 299.48 131.981 300.85 135.56C302.523 139.904 303.636 144.444 304.16 149.07C305.215 157.459 304.696 165.971 302.63 174.17C301.988 176.644 301.21 179.081 300.3 181.47C299.96 182.3 299.68 182.95 299.49 183.38C299.409 183.624 299.302 183.859 299.17 184.08Z" fill="#455A64"/>
<path d="M300.86 197.58C300.818 197.512 300.788 197.438 300.77 197.36L300.55 196.69C300.316 195.827 300.172 194.942 300.12 194.05C300.05 190.731 300.824 187.448 302.37 184.51C304.14 180.7 307.37 176.88 310.47 172.39C312.118 170.065 313.437 167.525 314.39 164.84C315.333 161.939 315.693 158.881 315.45 155.84C315.219 152.791 314.379 149.819 312.98 147.1C311.61 144.593 309.93 142.268 307.98 140.18C304.32 136.18 300.64 132.76 298.23 129.33C296.216 126.706 294.797 123.676 294.07 120.45C293.81 119.269 293.733 118.055 293.84 116.85C293.889 118.046 294.033 119.237 294.27 120.41C295.06 123.581 296.512 126.549 298.53 129.12C300.95 132.48 304.62 135.8 308.34 139.86C310.319 141.97 312.023 144.322 313.41 146.86C314.84 149.638 315.7 152.675 315.94 155.79C316.186 158.905 315.816 162.038 314.85 165.01C313.878 167.736 312.532 170.314 310.85 172.67C307.7 177.18 304.47 180.95 302.68 184.67C301.122 187.544 300.307 190.761 300.31 194.03C300.37 195.229 300.554 196.419 300.86 197.58Z" fill="#263238"/>
<path d="M279.58 111.63C276.37 109.36 272.23 108.84 268.3 108.9C257.7 109.05 246.94 113.1 239.85 120.98C233.85 127.62 225.04 140.4 223.37 149.16C219.3 170.51 232.79 176.49 221.8 209.82C219.8 215.82 217.32 221.7 216.1 227.9C215.661 230.112 215.457 232.365 215.49 234.62C214.2 238.52 214.99 243.02 216.58 246.9C218.45 251.46 221.3 255.56 223.09 260.15C224.88 264.74 228.82 272.27 226.19 276.44C229.9 275.44 230.03 271.57 232.97 269.1C233.839 272.414 233.812 275.9 232.89 279.2C237.501 278.878 241.879 277.051 245.35 274C252.21 268 254.35 258.25 255.42 249.17C257.72 229.32 255.47 210.28 250.21 191L250.14 191.09C246.31 178.76 239.06 167.38 245.57 164.66C256.91 159.93 246.57 154.95 250.87 143.03C252.22 139.31 253.72 135.37 256.87 133.03C260.65 130.21 265.76 130.36 270.47 130.1C275.18 129.84 280.52 128.6 282.73 124.44L283.02 121.95C284.71 118.38 282.79 113.91 279.58 111.63Z" fill="#263238"/>
<path d="M228.44 190.56C228.753 190.318 229.032 190.036 229.27 189.72C229.843 188.732 230.065 187.58 229.9 186.45C229.58 183.5 228.09 179.45 226.14 174.45C225.039 171.741 224.192 168.936 223.61 166.07C222.873 162.559 223.194 158.908 224.532 155.579C225.871 152.25 228.167 149.393 231.13 147.37C234.33 145.07 238.68 144.72 241.35 141.6C244.02 138.48 245.35 134.74 246.51 131.12C247.072 129.309 247.74 127.532 248.51 125.8C249.287 124.148 250.225 122.577 251.31 121.11C253.321 118.398 255.816 116.083 258.67 114.28C259.953 113.429 261.346 112.756 262.81 112.28C264.17 111.868 265.592 111.699 267.01 111.78C269.422 111.979 271.786 112.566 274.01 113.52C276.01 114.33 277.65 115.04 279.01 115.76C280.044 116.292 280.943 117.051 281.64 117.98C281.877 118.307 282.056 118.672 282.17 119.06C281.983 118.715 281.776 118.381 281.55 118.06C280.835 117.175 279.934 116.458 278.91 115.96C277.59 115.28 275.91 114.59 273.91 113.81C271.708 112.908 269.375 112.365 267 112.2C265.624 112.125 264.246 112.298 262.93 112.71C261.519 113.182 260.175 113.834 258.93 114.65C254.61 117.413 251.165 121.35 249 126C248.232 127.716 247.564 129.476 247 131.27C245.82 134.88 244.59 138.85 241.74 141.94C240.322 143.431 238.576 144.571 236.64 145.27C234.813 145.909 233.065 146.754 231.43 147.79C228.408 149.865 226.092 152.813 224.79 156.24C223.641 159.36 223.368 162.736 224 166C224.565 168.846 225.388 171.634 226.46 174.33C228.36 179.33 229.81 183.42 230.07 186.44C230.221 187.607 229.956 188.79 229.32 189.78C229.14 190.021 228.924 190.233 228.68 190.41L228.44 190.56Z" fill="#455A64"/>
<path d="M245 166.31C244.71 162.31 240.31 159.75 236.89 161.82C235.01 162.96 233.61 165.2 233.89 169.44C234.6 180.73 245.79 177.69 245.79 177.36C245.79 177.03 245.29 171 245 166.31Z" fill="#FFBE9D"/>
<path d="M242 173.3C242 173.3 241.81 173.45 241.49 173.62C241.035 173.849 240.509 173.896 240.02 173.75C238.8 173.38 237.68 171.55 237.5 169.52C237.408 168.554 237.534 167.58 237.87 166.67C237.953 166.31 238.123 165.975 238.365 165.696C238.607 165.417 238.915 165.202 239.26 165.07C239.481 164.996 239.721 165.002 239.938 165.086C240.155 165.17 240.336 165.327 240.45 165.53C240.62 165.84 240.56 166.07 240.63 166.09C240.7 166.11 240.86 165.88 240.74 165.42C240.659 165.144 240.486 164.904 240.25 164.74C239.922 164.527 239.525 164.448 239.14 164.52C238.683 164.642 238.265 164.878 237.925 165.208C237.586 165.537 237.336 165.947 237.2 166.4C236.777 167.407 236.609 168.503 236.71 169.59C236.93 171.86 238.23 173.92 239.89 174.29C240.199 174.357 240.518 174.355 240.826 174.284C241.134 174.214 241.422 174.075 241.67 173.88C242 173.58 242.05 173.32 242 173.3Z" fill="#EB996E"/>
<path d="M246.32 181C246.32 181 246.4 181.22 246.32 181.62C246.159 182.186 245.805 182.678 245.32 183.01C244.95 183.253 244.529 183.405 244.09 183.456C243.65 183.506 243.205 183.453 242.79 183.3C242.283 183.116 241.821 182.826 241.437 182.448C241.052 182.07 240.753 181.614 240.56 181.11C240.224 180.21 240.14 179.236 240.316 178.291C240.492 177.347 240.922 176.468 241.56 175.75C241.8 175.437 242.101 175.177 242.445 174.984C242.789 174.791 243.168 174.671 243.56 174.63C242.908 174.974 242.325 175.435 241.84 175.99C241.35 176.612 241.008 177.337 240.84 178.11C240.638 179.044 240.711 180.017 241.05 180.91C241.212 181.349 241.464 181.749 241.792 182.084C242.119 182.418 242.514 182.679 242.95 182.85C243.299 182.992 243.676 183.052 244.052 183.026C244.428 183 244.794 182.888 245.12 182.7C245.56 182.428 245.908 182.031 246.12 181.56C246.25 181.22 246.27 181 246.32 181Z" fill="white"/>
<path d="M280.4 123.19C279.671 122.447 278.87 121.777 278.01 121.19C275.547 119.732 272.672 119.127 269.83 119.47C267.876 119.664 265.978 120.234 264.24 121.15C262.263 122.233 260.471 123.624 258.93 125.27C257.225 127.11 255.714 129.121 254.42 131.27C253.05 133.48 251.8 135.88 250.51 138.34C249.295 140.755 247.96 143.108 246.51 145.39C245.132 147.515 243.523 149.481 241.71 151.25C239.99 152.94 238.27 154.45 236.8 155.99C235.4 157.369 234.195 158.934 233.22 160.64C231.779 163.118 231.268 166.029 231.78 168.85C232.034 169.865 232.453 170.831 233.02 171.71C232.839 171.505 232.672 171.288 232.52 171.06C232.099 170.393 231.785 169.664 231.59 168.9C230.977 166.026 231.439 163.026 232.89 160.47C233.861 158.717 235.073 157.108 236.49 155.69C237.96 154.12 239.67 152.6 241.37 150.91C243.149 149.153 244.731 147.208 246.09 145.11C247.52 142.93 248.8 140.55 250.09 138.11C251.38 135.67 252.63 133.24 254.03 131.01C255.344 128.854 256.883 126.843 258.62 125.01C260.203 123.334 262.047 121.926 264.08 120.84C265.872 119.92 267.824 119.353 269.83 119.17C272.744 118.853 275.679 119.529 278.16 121.09C278.811 121.532 279.406 122.053 279.93 122.64C280.099 122.812 280.256 122.996 280.4 123.19Z" fill="#455A64"/>
<path d="M195.31 245.43L197.41 235.29L178.09 226.48L177.59 228.13C174.83 237.32 161.07 281.61 160.23 284.92C157.13 297.21 157.82 321.53 162.72 326.08C166.64 329.72 174.17 332.4 179.15 331.85C184.13 331.3 197.86 313.63 197.86 313.63L210.45 273.29L195.31 245.43Z" fill="#FFBE9D"/>
<path d="M196.16 239.4C196.157 239.662 196.127 239.924 196.07 240.18C195.97 240.74 195.85 241.48 195.69 242.42C195.34 244.42 194.83 247.19 194.22 250.61C193.61 254.03 192.87 258.19 192.22 262.79C191.512 267.76 191.125 272.77 191.06 277.79C191.015 282.82 191.583 287.837 192.75 292.73C193.84 297.22 194.84 301.36 194.75 304.93C194.766 307.732 194.049 310.49 192.67 312.93C192.176 313.83 191.518 314.631 190.73 315.29C193.275 312.439 194.587 308.696 194.38 304.88C194.44 301.38 193.38 297.3 192.29 292.8C191.095 287.874 190.511 282.819 190.55 277.75C190.609 272.698 191.013 267.657 191.76 262.66C192.41 258.05 193.18 253.93 193.85 250.48C194.52 247.03 195.09 244.3 195.48 242.32C195.68 241.39 195.84 240.66 195.95 240.1C196.007 239.863 196.077 239.629 196.16 239.4Z" fill="#EB996E"/>
<path d="M216.13 218.52L212.39 214.38V209.46L208.51 203.88L200.77 205.12L198.4 205.32L200 194C200.888 191.104 202.053 188.301 203.48 185.63C206.24 180.11 201.8 177.58 201.8 177.58L193.5 192.1L190.74 201.75L189.56 193.88C189.56 193.88 190.96 186.22 190.76 182.28C190.56 178.34 186.61 178.91 186.61 178.91L183.45 196.24V204.91L180.7 199.79C180.7 199.79 180.11 195.45 179.7 191.51C179.29 187.57 176.16 188.75 176.16 188.75V201.56L179.7 213.38C179.7 213.38 177.37 228.63 176.98 229.22L195.21 242C195.21 242 199.21 239 199.98 238.79C200.75 238.58 210.62 231.3 210.62 231.3L217.51 224.01C217.51 224.01 218.69 223.23 218.69 222.44C218.69 221.65 216.13 218.52 216.13 218.52ZM206.68 223.25L202.74 221.47L200.57 216.15L202.18 213.24L202.74 212.24L203.46 211.74L206.09 212.24C206.09 212.24 207.27 215.99 207.09 217.76C206.91 219.53 209.26 221.31 209.26 221.31L206.68 223.25Z" fill="#FFBE9D"/>
<path d="M203.46 211.71C203.46 211.77 203.1 211.81 202.56 211.64C201.855 211.396 201.231 210.96 200.76 210.38C200.281 209.812 199.976 209.117 199.88 208.38C199.82 207.82 199.88 207.47 199.98 207.48C200.143 208.428 200.55 209.317 201.16 210.06C201.77 210.803 202.563 211.375 203.46 211.72V211.71Z" fill="#EB996E"/>
<path d="M213.6 221.92C213.527 220.003 213.614 218.083 213.86 216.18C214.163 217.111 214.255 218.099 214.13 219.07C214.174 220.048 213.993 221.023 213.6 221.92Z" fill="#EB996E"/>
<path d="M207.52 229.37C207.52 229.37 207.02 229.05 206.46 228.29C205.692 227.275 205.335 226.007 205.46 224.74C205.519 224.352 205.686 223.989 205.94 223.69C206.17 223.44 206.41 223.21 206.64 223C207.048 222.644 207.476 222.31 207.92 222C208.68 221.46 209.22 221.22 209.26 221.3C208.914 221.659 208.543 221.993 208.15 222.3C207.8 222.6 207.4 222.96 206.97 223.38C206.76 223.59 206.54 223.82 206.33 224.06C206.141 224.29 206.017 224.566 205.97 224.86C205.89 225.476 205.955 226.103 206.16 226.69C206.308 227.192 206.52 227.672 206.79 228.12C207.23 228.86 207.59 229.32 207.52 229.37Z" fill="#EB996E"/>
<path d="M212.4 213.88C212.468 215.347 212.003 216.789 211.09 217.94C210.743 218.421 210.283 218.809 209.75 219.07C209.293 219.266 208.785 219.312 208.3 219.2C207.45 218.99 207.23 218.41 207.3 218.4C207.37 218.39 207.67 218.76 208.37 218.84C208.776 218.888 209.186 218.815 209.55 218.63C209.999 218.388 210.386 218.046 210.68 217.63C211.398 216.451 211.975 215.193 212.4 213.88Z" fill="#EB996E"/>
<path d="M207.09 217.45C206.97 217.45 206.68 215.71 206.09 213.58C205.861 212.658 205.687 211.723 205.57 210.78C205.5 210.05 205.57 209.59 205.57 209.59C205.57 209.59 205.73 210.02 205.89 210.72C206.12 211.72 206.33 212.55 206.55 213.46C207.19 215.6 207.26 217.45 207.09 217.45Z" fill="#EB996E"/>
<path d="M213.6 223.1C212.001 222.974 210.462 222.429 209.14 221.52C208.588 221.195 208.095 220.779 207.68 220.29C207.355 219.869 207.129 219.38 207.02 218.86C206.871 218.397 206.896 217.896 207.09 217.45C207.18 217.45 207.09 217.99 207.37 218.77C207.727 219.759 208.44 220.579 209.37 221.07C211.58 222.45 213.65 222.93 213.6 223.1Z" fill="#EB996E"/>
<path d="M197.36 227.48C196.169 225.489 194.701 223.677 193 222.1C191.175 220.653 189.155 219.472 187 218.59C187.693 218.637 188.372 218.813 189 219.11C192.157 220.36 194.802 222.635 196.51 225.57C196.914 226.146 197.202 226.794 197.36 227.48Z" fill="#EB996E"/>
<path d="M190.76 209.09C190.76 209.24 189.32 209.36 187.65 209.95C185.98 210.54 184.77 211.31 184.65 211.19C185.442 210.407 186.399 209.812 187.452 209.449C188.504 209.085 189.624 208.963 190.73 209.09H190.76Z" fill="#EB996E"/>
<path d="M222.42 428.7C222.42 428.7 163.99 444.87 161.65 445.7C158.13 446.94 158.72 459.84 164.2 459.64C166.79 459.54 209.07 461.21 214.42 460.88C219.77 460.55 234.14 454.88 234.14 454.88L222.42 428.7Z" fill="#455A64"/>
<path d="M198.08 451C197.78 451 197.39 447.95 195.5 444.73C193.61 441.51 191.19 439.59 191.37 439.35C191.55 439.11 194.37 440.77 196.37 444.24C198.37 447.71 198.32 451 198.08 451Z" fill="#263238"/>
<path d="M204.17 448.23C203.88 448.23 203.29 445.52 201.74 442.47C200.19 439.42 198.34 437.28 198.55 437.08C198.76 436.88 201 438.8 202.61 442.03C204.22 445.26 204.42 448.21 204.17 448.23Z" fill="#263238"/>
<path d="M209.88 446.7C209.59 446.7 209.81 443.76 208.52 440.53C207.23 437.3 205.13 435.28 205.33 435.06C205.53 434.84 208.07 436.65 209.43 440.17C210.79 443.69 210.12 446.78 209.88 446.7Z" fill="#263238"/>
<path d="M208.85 439.15C208.74 439.15 208.22 437.55 208.22 434.81C208.228 433.202 208.426 431.601 208.81 430.04C209.038 429.118 209.328 428.212 209.68 427.33C209.862 426.779 210.186 426.285 210.62 425.9C210.911 425.675 211.272 425.562 211.639 425.581C212.005 425.599 212.353 425.748 212.62 426C213.077 426.433 213.356 427.022 213.4 427.65C213.461 428.161 213.487 428.675 213.48 429.19C213.462 430.153 213.341 431.112 213.12 432.05C212.731 433.617 212.126 435.121 211.32 436.52C209.96 438.89 208.78 440.1 208.69 440.04C208.6 439.98 209.54 438.58 210.69 436.2C211.369 434.819 211.883 433.362 212.22 431.86C212.406 430.982 212.5 430.087 212.5 429.19C212.5 428.29 212.5 427.19 211.96 426.73C211.864 426.623 211.731 426.557 211.587 426.546C211.444 426.535 211.302 426.579 211.19 426.67C210.897 426.945 210.677 427.289 210.55 427.67C210.2 428.511 209.903 429.372 209.66 430.25C209.253 431.741 208.995 433.268 208.89 434.81C208.74 437.48 209 439.13 208.85 439.15Z" fill="#263238"/>
<path d="M208.92 438.56C208.92 438.45 210.3 437.97 212.69 437.95C214.086 437.948 215.476 438.119 216.83 438.46C217.664 438.639 218.469 438.935 219.22 439.34C219.702 439.579 220.092 439.97 220.33 440.452C220.568 440.935 220.642 441.482 220.54 442.01C220.408 442.513 220.143 442.971 219.774 443.336C219.404 443.702 218.944 443.962 218.44 444.09C217.577 444.305 216.673 444.305 215.81 444.09C214.428 443.744 213.136 443.106 212.02 442.22C210.957 441.504 210.035 440.599 209.3 439.55C209.41 439.42 210.51 440.38 212.41 441.65C213.494 442.396 214.714 442.922 216 443.2C216.713 443.375 217.457 443.375 218.17 443.2C218.506 443.113 218.814 442.94 219.063 442.698C219.312 442.456 219.493 442.153 219.59 441.82C219.648 441.49 219.593 441.151 219.436 440.855C219.278 440.56 219.026 440.326 218.72 440.19C218.053 439.821 217.34 439.542 216.6 439.36C215.313 439 213.993 438.769 212.66 438.67C210.38 438.48 208.94 438.72 208.92 438.56Z" fill="#263238"/>
<path d="M189.1 451.62C188.81 451.62 189.1 449.09 187.95 446.35C186.8 443.61 184.95 442 185.09 441.77C185.23 441.54 187.63 442.92 188.85 445.98C190.07 449.04 189.34 451.72 189.1 451.62Z" fill="#263238"/>
<path d="M229.87 454.32C229.152 454.744 228.395 455.099 227.61 455.38C225.492 456.196 223.32 456.864 221.11 457.38C215.52 458.79 207.55 459.59 198.8 459.5C190.05 459.41 182.15 459 176.43 458.77L169.66 458.41C168.827 458.412 167.995 458.325 167.18 458.15C168.004 458.022 168.838 457.982 169.67 458.03H176.45L198.8 458.47C206.241 458.679 213.684 458.092 221 456.72C226.54 455.57 229.8 454.13 229.87 454.32Z" fill="#263238"/>
<path d="M231.6 455.65C231.52 455.78 229.92 454.85 227.22 453.65C223.777 452.019 219.945 451.385 216.16 451.82C211.76 452.49 208.64 455.45 206.61 457.5C204.58 459.55 203.36 461.04 203.24 460.94C204.012 459.504 204.974 458.178 206.1 457C207.243 455.645 208.542 454.43 209.97 453.38C211.739 452.063 213.795 451.185 215.97 450.82C219.937 450.337 223.955 451.099 227.47 453C228.978 453.66 230.372 454.555 231.6 455.65Z" fill="#263238"/>
<path d="M173 458.17C172.9 458.1 173.4 457.33 173.86 455.97C174.458 454.204 174.606 452.317 174.29 450.48C173.936 448.64 173.12 446.919 171.92 445.48C171.01 444.37 170.27 443.82 170.34 443.72C170.41 443.62 171.26 444.03 172.34 445.1C173.747 446.526 174.691 448.344 175.048 450.316C175.405 452.288 175.158 454.321 174.34 456.15C173.73 457.56 173.05 458.23 173 458.17Z" fill="#263238"/>
<path d="M216.73 346.17L206.23 372C206.23 372 154.05 352.91 123.51 358.47C111.9 360.59 99.5102 386.94 116.39 403.86C132.9 420.37 162.39 443.71 217.81 451.26C219.19 451.45 241.88 456.32 240.48 456.15C239.08 455.98 272.29 461.24 272.29 461.24L280.09 431.77L342 441.51C378.46 439.02 396.3 400.03 374.35 387.51C353.87 375.8 315.35 374.87 315.35 374.87L305.9 349.08L216.73 346.17Z" fill="#263238"/>
<path d="M273.52 462.34C273.69 461.34 274.12 458.66 275.03 453.16C275.52 450.16 276.13 446.63 276.91 442.51C277.3 440.45 277.74 438.25 278.26 435.94C278.52 434.78 278.81 433.6 279.15 432.39C279.32 431.79 279.5 431.18 279.72 430.57C279.918 429.91 280.237 429.293 280.66 428.75L280.75 429.2C267.58 424.53 251.12 418.35 233.57 410.95C222.79 406.36 212.57 401.73 203.65 396.9C199.376 394.673 195.275 392.129 191.38 389.29C187.74 386.6 184.5 383.92 181.46 381.58C175.46 376.83 169.98 373.76 165.9 372.46C165.008 372.135 164.096 371.864 163.17 371.65C162.513 371.462 161.845 371.315 161.17 371.21L159.9 370.98C159.754 370.962 159.61 370.929 159.47 370.88C159.616 370.865 159.764 370.865 159.91 370.88L161.19 371.04C161.885 371.12 162.573 371.247 163.25 371.42C164.185 371.614 165.106 371.864 166.01 372.17C168.503 372.977 170.903 374.046 173.17 375.36C176.169 377.099 179.045 379.04 181.78 381.17C184.84 383.49 188.1 386.17 191.78 388.81C195.668 391.609 199.756 394.119 204.01 396.32C212.96 401.1 223.13 405.71 233.9 410.32C251.43 417.71 267.9 423.93 281 428.68L281.36 428.81L281.09 429.12C280.734 429.609 280.46 430.153 280.28 430.73C280.06 431.32 279.88 431.92 279.71 432.51C279.36 433.7 279.07 434.88 278.8 436.03C278.26 438.33 277.8 440.52 277.4 442.57C276.58 446.68 275.93 450.26 275.4 453.19C274.87 456.12 274.4 458.37 274.14 459.96C273.98 460.74 273.86 461.33 273.76 461.73C273.698 461.94 273.617 462.144 273.52 462.34Z" fill="#455A64"/>
<path d="M362.3 391C362.187 391.014 362.073 391.014 361.96 391L360.96 390.84C360.11 390.73 358.88 390.41 357.26 390.26C352.712 389.663 348.118 389.499 343.54 389.77C336.749 390.204 330.019 391.317 323.45 393.09C319.74 394.09 315.88 395.25 311.93 396.62C307.98 397.99 303.93 399.56 299.83 401.21C295.796 402.805 291.672 404.164 287.48 405.28C283.48 406.4 279.48 407.28 275.69 408C268.12 409.48 261.24 410.39 255.46 411.09C249.68 411.79 244.99 412.27 241.75 412.6L238.02 412.97L237.02 413.05C236.8 413.05 236.69 413.05 236.69 413.05C236.794 413.015 236.901 412.992 237.01 412.98L238.01 412.84L241.72 412.35L255.4 410.63C261.17 409.86 268.04 408.91 275.57 407.4C279.34 406.66 283.28 405.77 287.31 404.65C291.475 403.534 295.571 402.178 299.58 400.59C303.7 398.95 307.75 397.37 311.72 396C315.69 394.63 319.57 393.48 323.3 392.49C329.913 390.738 336.689 389.669 343.52 389.3C348.125 389.063 352.742 389.298 357.3 390C358.92 390.2 360.14 390.56 360.99 390.71L361.99 390.93C362.096 390.939 362.2 390.963 362.3 391Z" fill="#455A64"/>
<path d="M267 380.43C267 380.87 264.23 381.57 259.59 382C247.471 382.987 235.275 381.681 223.64 378.15C219.21 376.75 216.64 375.46 216.74 375.04C217.04 374.11 227.99 377.04 241.79 378.46C255.59 379.88 266.9 379.46 267 380.43Z" fill="#263238"/>
<path d="M315.89 375.25C315.241 375.49 314.571 375.674 313.89 375.8C313.22 375.94 312.42 376.14 311.5 376.42C310.58 376.7 309.5 376.97 308.38 377.42C305.692 378.318 303.054 379.363 300.48 380.55C297.58 381.92 294.48 383.55 291.29 385.46C285.896 388.75 280.721 392.387 275.8 396.35C273.91 397.86 272.39 399.11 271.35 399.99C270.83 400.469 270.272 400.903 269.68 401.29C270.137 400.749 270.639 400.247 271.18 399.79C272.18 398.86 273.64 397.55 275.51 395.99C280.366 391.901 285.527 388.19 290.95 384.89C293.951 383.096 297.045 381.463 300.22 380C302.822 378.835 305.494 377.833 308.22 377C309.38 376.62 310.45 376.36 311.4 376.13C312.198 375.916 313.005 375.743 313.82 375.61C314.5 375.437 315.192 375.317 315.89 375.25Z" fill="#455A64"/>
<path d="M257.89 401.25C256.631 401.055 255.401 400.702 254.23 400.2C251.365 399.106 248.567 397.844 245.85 396.42L237.74 392.17C236.586 391.645 235.47 391.041 234.4 390.36C235.628 390.692 236.815 391.158 237.94 391.75C240.08 392.75 242.94 394.2 246.15 395.83C249.36 397.46 252.25 398.83 254.4 399.77C255.589 400.201 256.754 400.696 257.89 401.25Z" fill="#455A64"/>
<path d="M263.53 347.69C263.63 347.69 263.46 350.07 263.26 353.9C263.06 357.73 262.89 363.02 262.98 368.9C263.07 374.78 263.41 380.03 263.73 383.84C264.05 387.65 264.29 390.01 264.19 390.03C264.027 389.502 263.916 388.96 263.86 388.41C263.68 387.35 263.48 385.82 263.26 383.91C262.82 380.1 262.41 374.79 262.32 368.91C262.23 363.03 262.47 357.71 262.79 353.91C262.95 351.99 263.11 350.45 263.25 349.39C263.286 348.815 263.38 348.246 263.53 347.69Z" fill="#455A64"/>
<path d="M269.34 357.83C269.34 357.89 269.12 358.04 268.8 358.41C268.354 358.95 268.069 359.605 267.98 360.3C267.907 360.797 267.94 361.304 268.078 361.786C268.216 362.269 268.455 362.717 268.78 363.1C269.226 363.496 269.771 363.765 270.357 363.876C270.943 363.987 271.548 363.938 272.108 363.733C272.669 363.528 273.163 363.174 273.538 362.711C273.913 362.247 274.156 361.691 274.24 361.1C274.236 360.597 274.125 360.101 273.915 359.644C273.705 359.187 273.4 358.78 273.02 358.45C272.502 357.98 271.86 357.668 271.17 357.55C270.68 357.48 270.39 357.55 270.38 357.47C270.37 357.39 270.65 357.3 271.19 357.29C271.968 357.322 272.714 357.602 273.32 358.09C273.783 358.444 274.16 358.898 274.425 359.417C274.69 359.936 274.835 360.508 274.85 361.09C274.782 361.813 274.512 362.503 274.069 363.079C273.627 363.655 273.031 364.095 272.35 364.348C271.669 364.601 270.931 364.656 270.22 364.508C269.509 364.36 268.854 364.014 268.33 363.51C267.957 363.058 267.691 362.527 267.55 361.957C267.41 361.388 267.4 360.794 267.52 360.22C267.656 359.452 268.039 358.75 268.61 358.22C268.81 358.021 269.064 357.885 269.34 357.83Z" fill="#455A64"/>
<path d="M280.45 431C280.45 431 339.75 440 342.15 440.55C345.75 441.35 346.69 454.09 341.28 454.55C338.73 454.76 297.38 461.37 292.09 461.67C286.8 461.97 270.23 457.67 270.23 457.67L280.45 431Z" fill="#455A64"/>
<path d="M307 450C307.3 450 307.32 446.92 308.79 443.53C310.26 440.14 312.43 437.97 312.22 437.77C312.01 437.57 309.44 439.51 307.9 443.15C306.36 446.79 306.74 450.08 307 450Z" fill="#263238"/>
<path d="M300.67 448C300.96 448 301.22 445.23 302.39 442.05C303.56 438.87 305.11 436.56 304.88 436.39C304.65 436.22 302.68 438.39 301.48 441.72C300.28 445.05 300.43 448.05 300.67 448Z" fill="#263238"/>
<path d="M294.88 447.2C295.17 447.15 294.6 444.31 295.5 440.98C296.4 437.65 298.21 435.42 297.98 435.24C297.75 435.06 295.48 437.11 294.56 440.73C293.64 444.35 294.66 447.31 294.88 447.2Z" fill="#263238"/>
<path d="M295 439.67C295.11 439.67 295.42 438.02 295.11 435.32C294.905 433.744 294.52 432.197 293.96 430.71C293.633 429.829 293.242 428.974 292.79 428.15C292.548 427.628 292.172 427.179 291.7 426.85C291.381 426.657 291.004 426.585 290.637 426.647C290.269 426.71 289.937 426.903 289.7 427.19C289.307 427.671 289.105 428.28 289.13 428.9C289.136 429.412 289.172 429.923 289.24 430.43C289.365 431.373 289.596 432.299 289.93 433.19C290.501 434.681 291.271 436.087 292.22 437.37C293.014 438.599 294.031 439.668 295.22 440.52C295.34 440.41 294.22 439.19 292.79 436.98C291.96 435.707 291.288 434.336 290.79 432.9C290.507 432.059 290.309 431.191 290.2 430.31C290.12 429.42 289.98 428.31 290.44 427.84C290.521 427.723 290.644 427.641 290.783 427.612C290.923 427.582 291.068 427.606 291.19 427.68C291.516 427.92 291.775 428.24 291.94 428.61C292.385 429.393 292.775 430.205 293.11 431.04C293.691 432.456 294.126 433.927 294.41 435.43C294.92 438 294.85 439.66 295 439.67Z" fill="#263238"/>
<path d="M294.87 439.09C294.87 438.98 293.44 438.67 291.1 438.94C289.73 439.104 288.386 439.44 287.1 439.94C286.303 440.216 285.549 440.604 284.86 441.09C284.411 441.379 284.07 441.808 283.889 442.311C283.708 442.813 283.698 443.361 283.86 443.87C284.052 444.347 284.366 444.766 284.772 445.082C285.178 445.398 285.66 445.601 286.17 445.67C287.043 445.779 287.93 445.669 288.75 445.35C290.068 444.846 291.264 444.069 292.26 443.07C293.219 442.244 294.015 441.247 294.61 440.13C294.49 440.02 293.52 441.13 291.8 442.56C290.822 443.418 289.688 444.08 288.46 444.51C287.778 444.751 287.047 444.827 286.33 444.73C285.988 444.688 285.663 444.556 285.389 444.347C285.114 444.138 284.901 443.859 284.77 443.54C284.676 443.222 284.689 442.882 284.808 442.572C284.928 442.263 285.146 442.002 285.43 441.83C286.05 441.395 286.722 441.039 287.43 440.77C288.651 440.263 289.921 439.881 291.22 439.63C293.43 439.19 294.86 439.25 294.87 439.09Z" fill="#263238"/>
<path d="M315.88 449.59C316.16 449.52 315.58 447.1 316.39 444.28C317.2 441.46 318.87 439.65 318.66 439.45C318.45 439.25 316.3 440.87 315.45 444.02C314.6 447.17 315.66 449.72 315.88 449.59Z" fill="#263238"/>
<path d="M276.14 457C276.894 457.342 277.682 457.603 278.49 457.78C280.667 458.333 282.879 458.741 285.11 459C292.492 459.71 299.933 459.525 307.27 458.45C315.86 457.32 323.57 456 329.16 455.11L335.77 453.96C336.586 453.857 337.391 453.673 338.17 453.41C337.346 453.382 336.521 453.443 335.71 453.59L329.06 454.43L307.15 457.49C299.867 458.545 292.492 458.823 285.15 458.32C279.56 457.87 276.19 456.85 276.14 457Z" fill="#263238"/>
<path d="M274.6 458.54C274.7 458.67 276.16 457.54 278.67 456.08C281.862 454.076 285.552 453.009 289.32 453C293.72 453.15 297.13 455.69 299.37 457.47C300.538 458.552 301.778 459.554 303.08 460.47C302.155 459.16 301.058 457.98 299.82 456.96C298.528 455.77 297.106 454.73 295.58 453.86C293.679 452.767 291.541 452.149 289.35 452.06C285.411 452.06 281.569 453.279 278.35 455.55C276.954 456.348 275.689 457.357 274.6 458.54Z" fill="#263238"/>
<path d="M314.42 282.08C314.19 283.54 313.42 323.08 315.78 326.67C319.49 332.37 331.45 342.57 338.89 339.78C350.96 335.25 353.69 309.72 353.47 314.46L343.92 233.79H325.53L324 262.72L318.64 266C318.275 269.365 317.589 272.686 316.59 275.92L314.42 282.08Z" fill="#FFBE9D"/>
<path d="M325.53 233.79C325.53 233.79 318.19 226.53 318.19 224.92C318.19 223.31 315.32 222.41 315.32 222.41L310.66 220.09C310.66 220.09 307.66 217.22 308.34 215.61C308.726 214.676 309.436 213.913 310.34 213.46C310.34 213.46 310.57 209.52 313.5 208.46C313.5 208.46 310.75 205.46 313.5 203.27C316.25 201.08 316.91 202.01 316.91 202.01C316.91 202.01 316.61 199.68 318.22 199.51C319.83 199.34 331.35 196.46 331.35 196.46C333 197.289 334.544 198.313 335.95 199.51C337.38 200.94 338.1 201.83 338.1 201.83C339.363 200.222 340.335 198.404 340.97 196.46C341.68 193.77 342.76 185.71 350.82 186.07V188.07C349.236 190.459 348.138 193.136 347.59 195.95C346.52 200.95 344.59 212.06 344.59 212.06L343.99 233.84L325.53 233.79Z" fill="#FFBE9D"/>
<path d="M318.45 314.26C318.375 313.995 318.322 313.724 318.29 313.45C318.21 312.91 318.06 312.13 317.98 311.1C317.685 308.206 317.642 305.292 317.85 302.39C318.169 298.089 318.747 293.811 319.58 289.58C320.45 284.8 321.63 279.58 322.51 274.06C324.23 262.99 324.45 252.82 324.73 245.48C324.86 241.85 324.97 238.89 325.04 236.79L325.16 234.42C325.159 234.145 325.186 233.87 325.24 233.6C325.255 233.876 325.255 234.154 325.24 234.43C325.24 235.02 325.24 235.8 325.24 236.79C325.24 238.9 325.16 241.86 325.1 245.49C325.033 255.076 324.331 264.647 323 274.14C322.11 279.69 320.91 284.9 320 289.67C319.149 293.879 318.538 298.132 318.17 302.41C317.945 305.296 317.945 308.194 318.17 311.08C318.22 312.08 318.34 312.9 318.39 313.44C318.435 313.711 318.455 313.985 318.45 314.26Z" fill="#EB996E"/>
<path d="M331.28 200.82C331.28 200.89 330.48 200.87 329.2 201.04C327.92 201.21 326.14 201.39 324.2 201.57C321.814 201.887 319.407 202.031 317 202C319.341 201.521 321.714 201.217 324.1 201.09C326.1 200.91 327.85 200.78 329.1 200.71C329.825 200.575 330.572 200.613 331.28 200.82Z" fill="#EB996E"/>
<path d="M327.9 209.42C327.206 209.465 326.51 209.441 325.82 209.35C324.55 209.27 322.82 209.24 320.82 209.19C319.147 209.177 317.477 209.053 315.82 208.82C315.13 208.76 314.455 208.588 313.82 208.31C314.513 208.297 315.206 208.344 315.89 208.45C317.16 208.56 318.89 208.63 320.89 208.67C322.89 208.71 324.63 208.81 325.89 208.98C326.578 209.027 327.256 209.175 327.9 209.42Z" fill="#EB996E"/>
<path d="M325.25 216.37C324.536 216.373 323.824 216.289 323.13 216.12C321.83 215.9 320.05 215.56 318.08 215.12C316.11 214.68 314.34 214.32 313.08 214.01C312.375 213.891 311.686 213.686 311.03 213.4C311.748 213.396 312.463 213.48 313.16 213.65C314.45 213.87 316.24 214.21 318.16 214.65C320.08 215.09 321.89 215.45 323.16 215.77C323.879 215.883 324.581 216.084 325.25 216.37Z" fill="#EB996E"/>
</svg>
