<svg width="394" height="149" viewBox="0 0 394 149" fill="none" xmlns="http://www.w3.org/2000/svg">
<path d="M14.153 130.088C10.313 130.088 6.377 128.888 3.113 127.304L1.673 135.032C4.409 136.52 9.017 137.72 14.009 137.72C22.697 137.72 27.209 133.592 27.209 127.592C27.209 121.88 22.217 119.72 17.465 118.424C14.489 117.656 11.609 116.936 11.609 115.544C11.609 114.344 12.617 113.96 14.489 113.96C17.609 113.96 21.641 115.016 25.049 116.696L26.537 108.968C23.657 107.48 19.817 106.328 14.441 106.328C6.233 106.328 2.153 110.12 2.153 116.024C2.153 122.168 7.721 124.184 12.137 125.48C15.641 126.536 17.753 126.872 17.753 128.36C17.753 129.656 16.313 130.088 14.153 130.088ZM49.9738 114.728H59.0458V107H31.4458V114.728H40.5178V137H49.9738V114.728ZM91.5346 137L81.4066 107H69.3586L59.0386 137H68.3506L70.1266 131.384H80.3026L82.1746 137H91.5346ZM75.3106 113.768L78.4786 124.28H71.9506L75.3106 113.768ZM106.209 137V128.12L108.849 127.88L114.225 137H124.689L117.249 125.48C121.281 123.896 123.105 120.68 123.105 116.84C123.105 110.84 118.737 107 110.337 107H96.7528V137H106.209ZM109.281 121.352L106.017 121.4V114.2H108.609C112.065 114.2 113.313 115.256 113.313 117.512C113.313 119.96 112.161 121.016 109.281 121.352ZM151.103 121.208C154.703 120.296 156.911 118.376 156.911 114.776C156.911 110.552 154.943 107 145.103 107H130.559V137H145.151C155.711 137 157.823 132.824 157.823 128.168C157.823 124.328 154.895 121.736 151.103 121.208ZM147.455 116.456C147.455 118.376 146.159 119.336 143.615 119.336H139.679V113.72H143.903C146.255 113.72 147.455 114.632 147.455 116.456ZM148.271 127.448C148.271 129.416 146.975 130.28 144.095 130.28H139.679V124.664H143.999C146.687 124.664 148.271 125.384 148.271 127.448ZM191.732 124.424V107H182.324V124.28C182.324 128.504 181.028 129.944 177.908 129.944C174.644 129.944 173.252 128.072 173.252 124.04V107H163.796V125.192C163.796 134.264 169.796 137.72 177.764 137.72C185.972 137.72 191.732 133.688 191.732 124.424ZM208.846 137V128.12L211.486 127.88L216.862 137H227.326L219.886 125.48C223.918 123.896 225.742 120.68 225.742 116.84C225.742 110.84 221.374 107 212.974 107H199.39V137H208.846ZM211.918 121.352L208.654 121.4V114.2H211.246C214.702 114.2 215.95 115.256 215.95 117.512C215.95 119.96 214.798 121.016 211.918 121.352ZM260.669 134.984V119.288H245.405V126.536H252.269V129.56C251.309 129.944 249.677 130.136 248.381 130.136C243.053 130.136 240.797 127.256 240.797 121.928C240.797 117.368 243.725 114.2 248.573 114.2C251.405 114.2 254.093 114.92 257.213 116.648L260.141 108.872C257.069 107.096 252.221 106.28 248.189 106.28C237.773 106.28 231.389 112.136 231.389 122.12C231.389 132.2 238.061 137.72 248.093 137.72C253.085 137.72 257.357 136.664 260.669 134.984ZM295.682 124.424V107H286.274V124.28C286.274 128.504 284.978 129.944 281.858 129.944C278.594 129.944 277.202 128.072 277.202 124.04V107H267.746V125.192C267.746 134.264 273.746 137.72 281.714 137.72C289.922 137.72 295.682 133.688 295.682 124.424ZM303.34 137H326.764V129.656H312.556V125.624H323.788V118.28H312.556V114.344H326.764V107H303.34V137ZM343.368 137V128.12L346.008 127.88L351.384 137H361.848L354.408 125.48C358.44 123.896 360.264 120.68 360.264 116.84C360.264 110.84 355.896 107 347.496 107H333.912V137H343.368ZM346.44 121.352L343.176 121.4V114.2H345.768C349.224 114.2 350.472 115.256 350.472 117.512C350.472 119.96 349.32 121.016 346.44 121.352ZM378.897 130.088C375.057 130.088 371.121 128.888 367.857 127.304L366.417 135.032C369.153 136.52 373.761 137.72 378.753 137.72C387.441 137.72 391.953 133.592 391.953 127.592C391.953 121.88 386.961 119.72 382.209 118.424C379.233 117.656 376.353 116.936 376.353 115.544C376.353 114.344 377.361 113.96 379.233 113.96C382.353 113.96 386.385 115.016 389.793 116.696L391.281 108.968C388.401 107.48 384.561 106.328 379.185 106.328C370.977 106.328 366.897 110.12 366.897 116.024C366.897 122.168 372.465 124.184 376.881 125.48C380.385 126.536 382.497 126.872 382.497 128.36C382.497 129.656 381.057 130.088 378.897 130.088Z" fill="white"/>
<path d="M96.8151 69.104C98.6151 68.648 99.7191 67.688 99.7191 65.888C99.7191 63.776 98.7351 62 93.8151 62H86.5431V77H93.8391C99.1191 77 100.175 74.912 100.175 72.584C100.175 70.664 98.7111 69.368 96.8151 69.104ZM94.9911 66.728C94.9911 67.688 94.3431 68.168 93.0711 68.168H91.1031V65.36H93.2151C94.3911 65.36 94.9911 65.816 94.9911 66.728ZM95.3991 72.224C95.3991 73.208 94.7511 73.64 93.3111 73.64H91.1031V70.832H93.2631C94.6071 70.832 95.3991 71.192 95.3991 72.224ZM107.146 77H118.858V73.328H111.754V71.312H117.37V67.64H111.754V65.672H118.858V62H107.146V77ZM140.72 65.912L140.768 77H145.208L144.68 62H137.96L135.608 72.704L133.256 62H126.464L125.936 77H130.28L130.328 65.96L132.968 76.76H138.104L140.72 65.912ZM151.895 72.944H160.415V69.416H151.895V72.944ZM176.936 77L181.856 62H176.936L173.96 72.512L170.984 62H166.088L170.936 77H176.936ZM188.478 77H193.206V62H188.478V77ZM211.48 62V70.52L206.152 62H201.064V77H205.456V68.504L210.856 77.144H215.872V62H211.48ZM238.37 69.392C238.37 64.928 235.37 62 229.922 62H223.706V77H229.586C235.25 77 238.37 74 238.37 69.392ZM233.618 69.536C233.618 72.224 232.226 73.376 229.85 73.376H228.434V65.624H229.61C232.37 65.624 233.618 66.752 233.618 69.536ZM261.055 69.44C261.055 64.184 257.575 61.64 253.063 61.64C248.551 61.64 244.999 64.64 244.999 69.536C244.999 74.768 248.479 77.36 252.991 77.36C257.503 77.36 261.055 74.336 261.055 69.44ZM256.303 69.536C256.303 71.936 255.247 73.64 253.063 73.64C250.879 73.64 249.751 71.912 249.751 69.44C249.751 67.04 250.783 65.36 252.991 65.36C255.175 65.36 256.303 67.064 256.303 69.536ZM292.659 77L287.595 62H281.571L276.411 77H281.067L281.955 74.192H287.043L287.979 77H292.659ZM284.547 65.384L286.131 70.64H282.867L284.547 65.384ZM314.003 69.44C314.003 64.184 310.523 61.64 306.011 61.64C301.499 61.64 297.947 64.64 297.947 69.536C297.947 74.768 301.427 77.36 305.939 77.36C310.451 77.36 314.003 74.336 314.003 69.44ZM309.251 69.536C309.251 71.936 308.195 73.64 306.011 73.64C303.827 73.64 302.699 71.912 302.699 69.44C302.699 67.04 303.731 65.36 305.939 65.36C308.123 65.36 309.251 67.064 309.251 69.536Z" fill="#9BD3BE"/>
<path d="M212.079 11.454L204.016 10.2822L200.411 2.97509C200.313 2.77503 200.151 2.61307 199.951 2.51463C199.449 2.26693 198.839 2.47334 198.589 2.97509L194.984 10.2822L186.921 11.454C186.699 11.4857 186.496 11.5905 186.34 11.7493C186.152 11.9427 186.048 12.2028 186.052 12.4725C186.056 12.7423 186.166 12.9996 186.359 13.1879L192.193 18.8754L190.815 26.9065C190.782 27.0933 190.803 27.2855 190.874 27.4611C190.946 27.6368 191.065 27.789 191.218 27.9004C191.372 28.0118 191.553 28.078 191.742 28.0915C191.931 28.105 192.121 28.0652 192.288 27.9767L199.5 24.185L206.712 27.9767C206.909 28.0815 207.137 28.1164 207.356 28.0783C207.909 27.983 208.281 27.459 208.185 26.9065L206.807 18.8754L212.641 13.1879C212.799 13.0322 212.904 12.829 212.936 12.6067C213.022 12.051 212.634 11.5365 212.079 11.454Z" fill="#9BD3BE"/>
<path d="M248.346 12.8923L242.28 12.0021L239.569 6.45132C239.495 6.29934 239.373 6.17631 239.222 6.10153C238.845 5.91337 238.386 6.07017 238.198 6.45132L235.486 12.0021L229.42 12.8923C229.253 12.9164 229.1 12.996 228.983 13.1166C228.842 13.2635 228.764 13.4611 228.766 13.666C228.769 13.8709 228.852 14.0664 228.998 14.2094L233.386 18.5299L232.349 24.6307C232.325 24.7726 232.341 24.9186 232.394 25.0521C232.448 25.1855 232.538 25.3011 232.653 25.3857C232.768 25.4704 232.905 25.5207 233.047 25.5309C233.189 25.5412 233.332 25.5109 233.458 25.4437L238.883 22.5634L244.309 25.4437C244.457 25.5233 244.629 25.5498 244.794 25.5209C245.209 25.4485 245.489 25.0505 245.417 24.6307L244.38 18.5299L248.769 14.2094C248.888 14.0912 248.967 13.9368 248.991 13.768C249.056 13.3458 248.764 12.955 248.346 12.8923Z" fill="#9BD3BE"/>
<path d="M169.58 13.6149L163.514 12.7247L160.802 7.17394C160.728 7.02197 160.607 6.89894 160.456 6.82415C160.079 6.63599 159.62 6.79279 159.431 7.17394L156.72 12.7247L150.654 13.6149C150.487 13.639 150.334 13.7186 150.217 13.8392C150.075 13.9861 149.997 14.1837 150 14.3886C150.003 14.5935 150.086 14.789 150.231 14.932L154.62 19.2525L153.583 25.3534C153.559 25.4953 153.574 25.6412 153.628 25.7747C153.682 25.9081 153.771 26.0237 153.887 26.1084C154.002 26.193 154.139 26.2433 154.281 26.2535C154.423 26.2638 154.565 26.2336 154.691 26.1663L160.117 23.286L165.542 26.1663C165.69 26.2459 165.862 26.2725 166.027 26.2435C166.443 26.1711 166.722 25.7731 166.651 25.3534L165.614 19.2525L170.002 14.932C170.122 14.8138 170.201 14.6594 170.225 14.4906C170.289 14.0684 169.998 13.6776 169.58 13.6149Z" fill="#9BD3BE"/>
</svg>
